<svg xmlns="http://www.w3.org/2000/svg" xmlns:xlink="http://www.w3.org/1999/xlink" width="1000" zoomAndPan="magnify" viewBox="0 0 750 749.999995" height="1000" preserveAspectRatio="xMidYMid meet" version="1.0"><defs><g/></defs><path fill="#feccbc" d="M 722.230469 674.707031 L 716.179688 655.800781 C 708.4375 631.59375 707.050781 605.789062 712.152344 580.890625 C 717.191406 556.203125 719.742188 531.105469 719.742188 505.933594 C 719.742188 500.742188 719.621094 495.550781 719.40625 490.363281 L 721.628906 322.5 C 731.164062 301.285156 736.1875 278.179688 736.1875 254.652344 L 736.1875 211.871094 C 736.1875 170.011719 721.621094 135.492188 681.023438 125.367188 L 668.839844 120.382812 L 518.203125 82.757812 C 491.320312 76.476562 465.164062 56.332031 461.964844 28.910156 L 461.753906 8.246094 C 461.390625 5.199219 458.824219 2.902344 455.761719 2.902344 L 418.917969 0 L 290.390625 0 C 287.328125 0 284.765625 2.292969 284.402344 5.34375 L 281.929688 26.574219 C 281.675781 28.753906 281.308594 30.898438 280.847656 33.003906 C 280.847656 33.003906 283.179688 37.742188 282.839844 38.957031 C 276.464844 61.671875 259.261719 86.414062 235.765625 91.898438 L 104.351562 121.722656 L 90.476562 118.054688 L 69.097656 123.394531 C 28.5 133.519531 0 170.011719 0 211.871094 L 0 254.652344 C 0 277.785156 5.308594 301.574219 14.542969 322.5 L 24.054688 356.570312 L 14.527344 370.714844 L 14.484375 492.390625 C 13.21875 522.75 15.660156 553.144531 21.742188 582.917969 C 23.75 592.742188 24.757812 602.71875 24.757812 612.660156 C 24.757812 627.933594 22.40625 643.175781 17.714844 657.828125 L 11.664062 676.734375 C 4.722656 698.449219 0.84375 720.996094 0.121094 743.722656 C 0.015625 747.148438 2.730469 750 6.171875 750 L 118.988281 750 C 122.324219 750 125.023438 747.296875 125.023438 743.964844 L 125.023438 682.183594 C 125.023438 645.367188 129.167969 608.632812 137.386719 572.683594 C 137.714844 571.25 138.871094 516.859375 139.210938 515.425781 L 154.910156 500.824219 C 154.910156 500.824219 159.074219 525.4375 161.867188 537.613281 L 173.074219 586.523438 C 173.132812 586.75 173.179688 586.992188 173.226562 587.21875 C 180.46875 619.074219 181.070312 652.078125 175.367188 684.234375 L 171.246094 707.382812 L 164.941406 742.90625 C 164.292969 746.601562 167.128906 750 170.886719 750 L 572.816406 750 L 571.457031 744.082031 C 575.214844 744.082031 578.050781 740.6875 577.402344 736.992188 C 577.402344 736.992188 553.546875 669.3125 560.789062 637.453125 C 560.835938 637.226562 579.816406 535.773438 579.816406 535.773438 C 582.609375 523.59375 595.085938 500.824219 595.085938 500.824219 L 611.195312 518.976562 C 611.539062 520.40625 612.28125 571.25 612.609375 572.683594 C 620.828125 608.632812 624.972656 645.363281 624.972656 682.179688 L 624.972656 743.960938 C 624.972656 747.296875 627.671875 750 631.007812 750 L 711.871094 750 L 733.367188 740.074219 C 736.804688 740.074219 739.523438 737.222656 739.417969 733.796875 C 738.695312 711.070312 729.171875 696.421875 722.230469 674.707031 Z M 722.230469 674.707031 " fill-opacity="1" fill-rule="nonzero"/><path fill="#f9bcac" d="M 515.578125 82.09375 L 469.925781 70.683594 C 443.042969 64.40625 422.992188 41.921875 419.792969 14.503906 L 418.917969 0 L 459.605469 0 C 462.667969 0 465.234375 2.292969 465.597656 5.34375 L 468.070312 26.574219 C 471.164062 53.089844 490.023438 75 515.578125 82.09375 Z M 515.578125 82.09375 " fill-opacity="1" fill-rule="nonzero"/><path fill="#f9bcac" d="M 750 254.652344 C 750 278.179688 744.976562 301.28125 735.441406 322.5 L 730.902344 355.859375 L 735.460938 370.714844 L 735.515625 492.390625 C 735.726562 497.582031 735.847656 502.773438 735.847656 507.960938 C 735.847656 533.132812 733.300781 558.230469 728.261719 582.917969 C 723.164062 607.816406 724.550781 633.621094 732.289062 657.828125 L 738.339844 676.734375 C 745.28125 698.449219 749.15625 720.996094 749.882812 743.722656 C 749.988281 747.148438 747.269531 750 743.832031 750 L 711.878906 750 C 710.550781 727.257812 706.734375 695.839844 700.621094 676.734375 L 694.574219 657.828125 C 686.832031 633.621094 685.445312 607.816406 690.542969 582.917969 C 695.582031 558.230469 698.132812 533.132812 698.132812 507.964844 C 698.132812 502.773438 698.011719 497.582031 697.800781 492.390625 L 697.726562 327.449219 C 697.726562 324.382812 698.277344 321.328125 699.460938 318.5 C 707.867188 298.394531 712.285156 276.710938 712.285156 254.652344 L 712.285156 198.292969 C 712.285156 165.726562 695.039062 136.421875 668.277344 120.242188 L 680.90625 123.398438 C 721.5 133.519531 750 170.007812 750 211.871094 Z M 750 254.652344 " fill-opacity="1" fill-rule="nonzero"/><path fill="#f9a791" d="M 602.449219 466.570312 L 601.394531 477.585938 " fill-opacity="1" fill-rule="nonzero"/><path fill="#f9a791" d="M 735.457031 370.714844 C 733.132812 374.230469 730.703125 377.6875 728.183594 381.066406 C 725.964844 384.054688 722.554688 385.621094 719.101562 385.621094 C 716.765625 385.621094 714.378906 384.882812 712.359375 383.375 C 707.347656 379.644531 706.308594 372.554688 710.050781 367.542969 C 718.828125 355.742188 729.40625 335.898438 735.441406 322.5 Z M 735.457031 370.714844 " fill-opacity="1" fill-rule="nonzero"/><path fill="#f9bcac" d="M 14.542969 370.714844 C 16.867188 374.230469 19.296875 377.6875 21.816406 381.066406 C 24.035156 384.054688 27.445312 385.621094 30.898438 385.621094 C 33.234375 385.621094 35.621094 384.882812 37.640625 383.375 C 42.648438 379.644531 43.691406 372.554688 39.949219 367.542969 C 31.171875 355.742188 20.59375 335.898438 14.558594 322.5 Z M 14.542969 370.714844 " fill-opacity="1" fill-rule="nonzero"/><path fill="#f9bcac" d="M 233.457031 457.507812 C 229.710938 457.507812 226.042969 455.648438 223.890625 452.25 C 220.542969 446.96875 222.109375 439.976562 227.386719 436.632812 C 256.394531 418.238281 273.710938 386.746094 273.710938 352.394531 L 273.710938 258.207031 C 273.710938 251.957031 278.777344 246.890625 285.023438 246.890625 C 291.273438 246.890625 296.339844 251.957031 296.339844 258.207031 L 296.339844 352.394531 C 296.339844 394.542969 275.089844 433.179688 239.503906 455.75 C 237.625 456.941406 235.53125 457.507812 233.457031 457.507812 Z M 233.457031 457.507812 " fill-opacity="1" fill-rule="nonzero"/><path fill="#f9bcac" d="M 515.03125 457.507812 C 512.960938 457.507812 510.863281 456.941406 508.984375 455.746094 C 473.394531 433.179688 452.152344 394.542969 452.152344 352.394531 L 452.152344 258.207031 C 452.152344 251.957031 457.21875 246.890625 463.464844 246.890625 C 469.714844 246.890625 474.78125 251.957031 474.78125 258.207031 L 474.78125 352.394531 C 474.78125 386.746094 492.097656 418.234375 521.101562 436.632812 C 526.378906 439.980469 527.945312 446.972656 524.597656 452.25 C 522.445312 455.648438 518.777344 457.507812 515.03125 457.507812 Z M 515.03125 457.507812 " fill-opacity="1" fill-rule="nonzero"/><path fill="#f9a791" d="M 319.863281 84.9375 C 318.597656 109.359375 299.488281 129.453125 275.21875 132.441406 C 272.335938 132.792969 269.574219 132.871094 266.871094 132.734375 C 265.449219 132.660156 264.148438 133.582031 263.808594 134.964844 C 257.085938 162.316406 232.425781 182.597656 203.007812 182.597656 C 179.558594 182.597656 159.136719 169.703125 148.414062 150.609375 C 147.734375 149.398438 146.285156 148.816406 144.949219 149.203125 C 141.109375 150.3125 137.054688 150.90625 132.855469 150.90625 C 112.457031 150.90625 95.320312 136.949219 90.476562 118.054688 L 231.796875 82.757812 C 256.554688 76.976562 275.507812 57.46875 280.851562 33.007812 C 304.085938 38.390625 321.167969 59.78125 319.863281 84.9375 Z M 319.863281 84.9375 " fill-opacity="1" fill-rule="nonzero"/><path fill="#f9a791" d="M 604.066406 449.953125 L 602.449219 466.570312 L 601.394531 477.585938 L 595.089844 500.824219 C 596.355469 506.152344 576.335938 579.039062 577.40625 584.394531 L 576.925781 586.523438 C 576.863281 586.75 576.820312 586.992188 576.773438 587.21875 C 569.53125 619.074219 568.925781 652.078125 574.632812 684.234375 L 585.058594 742.90625 C 585.496094 745.410156 584.332031 747.796875 582.355469 749.046875 C 581.421875 749.652344 580.320312 750 579.113281 750 L 572.820312 750 C 564.175781 750 556.074219 747.703125 549.089844 743.660156 C 543.023438 740.179688 537.800781 735.386719 533.796875 729.679688 C 532.441406 727.746094 530.140625 726.660156 527.816406 727.085938 C 525.414062 727.523438 522.941406 727.753906 520.40625 727.753906 C 497.597656 727.753906 479.097656 709.253906 479.097656 686.4375 C 479.097656 685.769531 479.117188 685.101562 479.152344 684.441406 C 479.25 682.578125 478.550781 680.746094 477.140625 679.53125 C 456.949219 662.1875 444.15625 636.496094 444.15625 607.785156 C 444.15625 569.355469 467.089844 536.289062 500.015625 521.511719 C 501.554688 520.824219 502.769531 519.5625 503.308594 517.964844 C 507.667969 505.082031 518.851562 495.355469 532.5625 493.097656 C 534.582031 492.765625 536.316406 491.476562 537.140625 489.601562 C 547.464844 466.105469 570.925781 449.695312 598.238281 449.695312 C 600.203125 449.699219 602.148438 449.789062 604.066406 449.953125 Z M 604.066406 449.953125 " fill-opacity="1" fill-rule="nonzero"/><path fill="#f9a791" d="M 191.722656 228.621094 C 185.476562 228.621094 180.402344 223.554688 180.402344 217.304688 C 180.402344 211.054688 185.460938 205.988281 191.707031 205.988281 L 191.722656 205.988281 C 197.972656 205.988281 203.039062 211.054688 203.039062 217.304688 C 203.039062 223.554688 197.972656 228.621094 191.722656 228.621094 Z M 191.722656 228.621094 " fill-opacity="1" fill-rule="nonzero"/><path fill="#f9a791" d="M 244.527344 228.621094 C 238.277344 228.621094 233.203125 223.554688 233.203125 217.304688 C 233.203125 211.054688 238.261719 205.988281 244.511719 205.988281 L 244.527344 205.988281 C 250.777344 205.988281 255.84375 211.054688 255.84375 217.304688 C 255.84375 223.554688 250.777344 228.621094 244.527344 228.621094 Z M 244.527344 228.621094 " fill-opacity="1" fill-rule="nonzero"/><path fill="#f9a791" d="M 218.125 261.820312 C 211.878906 261.820312 206.804688 256.753906 206.804688 250.503906 C 206.804688 244.253906 211.863281 239.1875 218.109375 239.1875 L 218.125 239.1875 C 224.375 239.1875 229.441406 244.253906 229.441406 250.503906 C 229.441406 256.753906 224.375 261.820312 218.125 261.820312 Z M 218.125 261.820312 " fill-opacity="1" fill-rule="nonzero"/><path fill="#f9a791" d="M 298.597656 176.660156 C 292.347656 176.660156 287.273438 171.59375 287.273438 165.34375 C 287.273438 159.09375 292.332031 154.027344 298.582031 154.027344 L 298.597656 154.027344 C 304.84375 154.027344 309.914062 159.09375 309.914062 165.34375 C 309.914062 171.59375 304.84375 176.660156 298.597656 176.660156 Z M 298.597656 176.660156 " fill-opacity="1" fill-rule="nonzero"/><path fill="#f9a791" d="M 342.515625 147.335938 C 336.265625 147.335938 331.191406 142.269531 331.191406 136.019531 C 331.191406 129.769531 336.25 124.703125 342.5 124.703125 L 342.515625 124.703125 C 348.765625 124.703125 353.832031 129.769531 353.832031 136.019531 C 353.832031 142.269531 348.765625 147.335938 342.515625 147.335938 Z M 342.515625 147.335938 " fill-opacity="1" fill-rule="nonzero"/><path fill="#f9a791" d="M 338.980469 189.609375 C 332.734375 189.609375 327.660156 184.542969 327.660156 178.292969 C 327.660156 172.042969 332.71875 166.976562 338.964844 166.976562 L 338.980469 166.976562 C 345.230469 166.976562 350.296875 172.042969 350.296875 178.292969 C 350.296875 184.542969 345.230469 189.609375 338.980469 189.609375 Z M 338.980469 189.609375 " fill-opacity="1" fill-rule="nonzero"/><path fill="#f9a791" d="M 519.648438 133.4375 C 513.402344 133.4375 508.328125 128.371094 508.328125 122.121094 C 508.328125 115.871094 513.386719 110.804688 519.632812 110.804688 L 519.648438 110.804688 C 525.898438 110.804688 530.964844 115.871094 530.964844 122.121094 C 530.964844 128.371094 525.898438 133.4375 519.648438 133.4375 Z M 519.648438 133.4375 " fill-opacity="1" fill-rule="nonzero"/><path fill="#f9a791" d="M 570.730469 146.820312 C 564.480469 146.820312 559.40625 141.753906 559.40625 135.503906 C 559.40625 129.253906 564.46875 124.183594 570.714844 124.183594 L 570.730469 124.183594 C 576.980469 124.183594 582.042969 129.253906 582.042969 135.503906 C 582.046875 141.753906 576.980469 146.820312 570.730469 146.820312 Z M 570.730469 146.820312 " fill-opacity="1" fill-rule="nonzero"/><path fill="#f9a791" d="M 536.78125 172.246094 C 530.53125 172.246094 525.457031 167.179688 525.457031 160.929688 C 525.457031 154.675781 530.515625 149.609375 536.765625 149.609375 L 536.777344 149.609375 C 543.027344 149.609375 548.09375 154.675781 548.09375 160.929688 C 548.09375 167.179688 543.03125 172.246094 536.78125 172.246094 Z M 536.78125 172.246094 " fill-opacity="1" fill-rule="nonzero"/><path fill="#f9a791" d="M 622.023438 160.402344 C 615.777344 160.402344 610.703125 155.335938 610.703125 149.085938 C 610.703125 142.835938 615.761719 137.765625 622.007812 137.765625 L 622.023438 137.765625 C 628.273438 137.765625 633.339844 142.835938 633.339844 149.085938 C 633.339844 155.335938 628.277344 160.402344 622.023438 160.402344 Z M 622.023438 160.402344 " fill-opacity="1" fill-rule="nonzero"/><path fill="#f9a791" d="M 588.074219 185.828125 C 581.828125 185.828125 576.753906 180.761719 576.753906 174.511719 C 576.753906 168.257812 581.8125 163.191406 588.058594 163.191406 L 588.074219 163.191406 C 594.324219 163.191406 599.390625 168.257812 599.390625 174.511719 C 599.390625 180.761719 594.324219 185.828125 588.074219 185.828125 Z M 588.074219 185.828125 " fill-opacity="1" fill-rule="nonzero"/><path fill="#f9a791" d="M 80.980469 184.015625 C 74.730469 184.015625 69.65625 178.949219 69.65625 172.699219 C 69.65625 166.449219 74.714844 161.378906 80.964844 161.378906 L 80.980469 161.378906 C 87.230469 161.378906 92.292969 166.449219 92.292969 172.699219 C 92.292969 178.945312 87.230469 184.015625 80.980469 184.015625 Z M 80.980469 184.015625 " fill-opacity="1" fill-rule="nonzero"/><path fill="#f9a791" d="M 128.4375 207.175781 C 122.1875 207.175781 117.113281 202.109375 117.113281 195.855469 C 117.113281 189.605469 122.171875 184.539062 128.417969 184.539062 L 128.4375 184.539062 C 134.683594 184.539062 139.75 189.605469 139.75 195.855469 C 139.75 202.109375 134.6875 207.175781 128.4375 207.175781 Z M 128.4375 207.175781 " fill-opacity="1" fill-rule="nonzero"/><path fill="#f9a791" d="M 90.152344 225.433594 C 83.90625 225.433594 78.832031 220.367188 78.832031 214.113281 C 78.832031 207.863281 83.886719 202.796875 90.136719 202.796875 L 90.152344 202.796875 C 96.402344 202.796875 101.46875 207.863281 101.46875 214.113281 C 101.46875 220.367188 96.402344 225.433594 90.152344 225.433594 Z M 90.152344 225.433594 " fill-opacity="1" fill-rule="nonzero"/><path fill="#f9a791" d="M 413.789062 648.773438 C 407.539062 648.773438 402.464844 643.707031 402.464844 637.457031 C 402.464844 631.207031 407.523438 626.136719 413.773438 626.136719 L 413.789062 626.136719 C 420.039062 626.136719 425.101562 631.207031 425.101562 637.457031 C 425.105469 643.707031 420.039062 648.773438 413.789062 648.773438 Z M 413.789062 648.773438 " fill-opacity="1" fill-rule="nonzero"/><path fill="#f9a791" d="M 440.769531 694.175781 C 434.523438 694.175781 429.449219 689.109375 429.449219 682.855469 C 429.449219 676.605469 434.507812 671.539062 440.753906 671.539062 L 440.769531 671.539062 C 447.019531 671.539062 452.085938 676.605469 452.085938 682.855469 C 452.085938 689.109375 447.019531 694.175781 440.769531 694.175781 Z M 440.769531 694.175781 " fill-opacity="1" fill-rule="nonzero"/><path fill="#f9a791" d="M 398.746094 688.4375 C 392.5 688.4375 387.425781 683.371094 387.425781 677.121094 C 387.425781 670.867188 392.484375 665.800781 398.730469 665.800781 L 398.746094 665.800781 C 404.996094 665.800781 410.0625 670.867188 410.0625 677.121094 C 410.0625 683.371094 405 688.4375 398.746094 688.4375 Z M 398.746094 688.4375 " fill-opacity="1" fill-rule="nonzero"/><path fill="#f9a791" d="M 472.421875 498.175781 C 466.175781 498.175781 461.101562 493.109375 461.101562 486.859375 C 461.101562 480.609375 466.160156 475.539062 472.40625 475.539062 L 472.421875 475.539062 C 478.671875 475.539062 483.738281 480.609375 483.738281 486.859375 C 483.738281 493.109375 478.675781 498.175781 472.421875 498.175781 Z M 472.421875 498.175781 " fill-opacity="1" fill-rule="nonzero"/><path fill="#f9a791" d="M 433.050781 533.371094 C 426.800781 533.371094 421.726562 528.304688 421.726562 522.054688 C 421.726562 515.804688 426.789062 510.738281 433.035156 510.738281 L 433.050781 510.738281 C 439.300781 510.738281 444.363281 515.804688 444.363281 522.054688 C 444.367188 528.304688 439.300781 533.371094 433.050781 533.371094 Z M 433.050781 533.371094 " fill-opacity="1" fill-rule="nonzero"/><path fill="#f9a791" d="M 430.621094 491.019531 C 424.371094 491.019531 419.296875 485.953125 419.296875 479.703125 C 419.296875 473.453125 424.359375 468.386719 430.605469 468.386719 L 430.621094 468.386719 C 436.871094 468.386719 441.933594 473.453125 441.933594 479.703125 C 441.9375 485.953125 436.871094 491.019531 430.621094 491.019531 Z M 430.621094 491.019531 " fill-opacity="1" fill-rule="nonzero"/><path fill="#f9bcac" d="M 154.882812 500.613281 L 138.390625 568.382812 C 138.046875 569.820312 137.714844 571.25 137.394531 572.683594 L 130.984375 544.691406 C 122.234375 506.484375 117.785156 467.246094 117.769531 428.074219 L 117.769531 320.855469 C 117.769531 312.105469 124.863281 305.011719 133.609375 305.011719 C 142.359375 305.011719 149.449219 312.105469 149.449219 320.855469 L 149.449219 428.058594 C 149.464844 452.339844 151.261719 476.589844 154.882812 500.613281 Z M 154.882812 500.613281 " fill-opacity="1" fill-rule="nonzero"/><path fill="#f9bcac" d="M 616.390625 305.011719 C 625.140625 305.011719 632.230469 312.105469 632.230469 320.855469 L 632.230469 428.058594 C 632.214844 467.261719 627.765625 506.5 619.015625 544.691406 L 612.601562 572.6875 C 612.285156 571.253906 611.953125 569.820312 611.605469 568.386719 L 595.207031 499.996094 C 598.769531 476.167969 600.535156 452.128906 600.550781 428.058594 L 600.550781 320.855469 C 600.550781 312.105469 607.640625 305.007812 616.390625 305.007812 Z M 616.390625 305.011719 " fill-opacity="1" fill-rule="nonzero"/><g fill="#000000" fill-opacity="1"><g transform="translate(26.67448, 22.87189)"><g><path d="M 0.421875 0 L 0.40625 -0.078125 L 0.390625 -0.078125 C 0.367188 -0.046875 0.34375 -0.0195312 0.3125 0 C 0.289062 0.0078125 0.257812 0.015625 0.21875 0.015625 C 0.164062 0.015625 0.125 0 0.09375 -0.03125 C 0.0625 -0.0625 0.046875 -0.0976562 0.046875 -0.140625 C 0.046875 -0.253906 0.132812 -0.3125 0.3125 -0.3125 L 0.390625 -0.328125 L 0.390625 -0.359375 C 0.390625 -0.398438 0.378906 -0.429688 0.359375 -0.453125 C 0.347656 -0.472656 0.320312 -0.484375 0.28125 -0.484375 C 0.238281 -0.484375 0.1875 -0.46875 0.125 -0.4375 L 0.109375 -0.5 C 0.128906 -0.507812 0.15625 -0.519531 0.1875 -0.53125 C 0.21875 -0.539062 0.25 -0.546875 0.28125 -0.546875 C 0.351562 -0.546875 0.398438 -0.53125 0.421875 -0.5 C 0.453125 -0.46875 0.46875 -0.421875 0.46875 -0.359375 L 0.46875 0 Z M 0.234375 -0.0625 C 0.285156 -0.0625 0.320312 -0.0703125 0.34375 -0.09375 C 0.375 -0.125 0.390625 -0.164062 0.390625 -0.21875 L 0.390625 -0.265625 L 0.3125 -0.265625 C 0.25 -0.253906 0.203125 -0.238281 0.171875 -0.21875 C 0.140625 -0.207031 0.125 -0.179688 0.125 -0.140625 C 0.125 -0.117188 0.132812 -0.0976562 0.15625 -0.078125 C 0.175781 -0.0664062 0.203125 -0.0625 0.234375 -0.0625 Z M 0.234375 -0.0625 "/></g></g></g></svg>