<svg xmlns="http://www.w3.org/2000/svg" xmlns:xlink="http://www.w3.org/1999/xlink" width="1000" zoomAndPan="magnify" viewBox="0 0 750 749.999995" height="1000" preserveAspectRatio="xMidYMid meet" version="1.0"><defs><g/><clipPath id="5ad6a1794c"><path d="M 73 435 L 678.46875 435 L 678.46875 749 L 73 749 Z M 73 435 " clip-rule="nonzero"/></clipPath><clipPath id="217709cf2e"><path d="M 71.71875 181 L 149 181 L 149 233 L 71.71875 233 Z M 71.71875 181 " clip-rule="nonzero"/></clipPath></defs><g clip-path="url(#5ad6a1794c)"><path fill="#f9c5b8" d="M 356.382812 645.515625 L 81.070312 645.515625 C 77.277344 645.515625 73.972656 642.402344 73.972656 638.421875 L 73.972656 483.316406 C 73.972656 479.496094 77.085938 476.21875 81.070312 476.21875 L 357.410156 476.21875 C 369.707031 457.15625 394.167969 446.757812 420.847656 441.371094 C 448.070312 435.820312 477.191406 435.140625 496.964844 435.140625 L 648.136719 435.140625 C 656.613281 435.140625 664.414062 438.960938 669.96875 445.1875 C 675.359375 451.253906 678.636719 459.402344 678.636719 468.421875 C 678.636719 477.410156 675.359375 485.75 669.96875 491.628906 C 668.941406 492.683594 667.882812 493.714844 666.855469 494.742188 C 667.882812 495.609375 669.101562 496.664062 669.96875 497.882812 C 675.359375 503.949219 678.636719 512.074219 678.636719 521.089844 C 678.636719 530.105469 675.359375 538.417969 669.96875 544.324219 C 668.941406 545.351562 667.882812 546.40625 666.855469 547.4375 C 667.882812 548.304688 669.101562 549.332031 669.96875 550.550781 C 675.359375 556.617188 678.636719 564.765625 678.636719 573.785156 C 678.636719 582.800781 675.359375 591.113281 669.96875 596.992188 C 668.941406 598.046875 667.882812 599.074219 666.855469 600.132812 C 667.882812 601 669.101562 602.027344 669.96875 603.246094 C 675.359375 609.3125 678.636719 617.460938 678.636719 626.453125 C 678.636719 635.46875 675.359375 643.78125 669.96875 649.6875 C 664.414062 655.914062 656.613281 659.730469 648.136719 659.730469 L 511.535156 659.730469 L 549.484375 687.109375 C 556.417969 692.144531 561.105469 699.429688 563.191406 707.742188 C 565.085938 715.703125 564.410156 724.371094 560.402344 732.003906 C 559.886719 733.035156 559.371094 733.902344 558.859375 734.765625 C 554.6875 741.375 548.457031 745.871094 541.683594 747.765625 C 534.75 749.851562 527.300781 749.171875 520.53125 745.707031 C 519.664062 745.355469 518.984375 744.839844 518.117188 744.300781 C 508.230469 739.101562 495.582031 733.222656 481.714844 726.644531 C 435.773438 705.304688 376.996094 677.765625 356.382812 645.515625 Z M 356.382812 645.515625 " fill-opacity="1" fill-rule="nonzero"/></g><path fill="#fab1a6" d="M 666.855469 600.132812 C 667.882812 601 669.101562 602.027344 669.96875 603.246094 C 672.757812 606.359375 675.007812 610.179688 676.550781 614.320312 L 536.132812 614.320312 C 532.339844 614.320312 529.035156 611.207031 529.035156 607.226562 C 529.035156 603.246094 532.148438 600.132812 536.132812 600.132812 Z M 666.855469 600.132812 " fill-opacity="1" fill-rule="nonzero"/><path fill="#fab1a6" d="M 666.855469 547.4375 C 667.882812 548.304688 669.101562 549.332031 669.96875 550.550781 C 672.757812 553.664062 675.007812 557.484375 676.550781 561.652344 L 536.132812 561.652344 C 532.339844 561.652344 529.035156 558.539062 529.035156 554.53125 C 529.035156 550.550781 532.148438 547.4375 536.132812 547.4375 Z M 666.855469 547.4375 " fill-opacity="1" fill-rule="nonzero"/><path fill="#fab1a6" d="M 666.855469 494.929688 C 667.882812 495.796875 669.101562 496.828125 669.96875 498.046875 C 672.757812 501.160156 675.007812 504.976562 676.550781 509.148438 L 536.132812 509.148438 C 532.339844 509.148438 529.035156 506.007812 529.035156 502.027344 C 529.035156 498.046875 532.148438 494.929688 536.132812 494.929688 Z M 666.855469 494.929688 " fill-opacity="1" fill-rule="nonzero"/><path fill="#ffc107" d="M 278.371094 94.25 C 309.386719 94.25 337.636719 106.894531 358.117188 127.175781 C 378.566406 147.621094 391.054688 175.699219 391.054688 206.894531 C 391.054688 238.089844 378.375 266.171875 358.117188 286.613281 C 337.636719 307.058594 309.574219 319.542969 278.371094 319.542969 C 247.167969 319.542969 219.078125 306.898438 198.628906 286.613281 C 178.148438 266.171875 165.6875 238.089844 165.6875 206.894531 C 165.6875 175.699219 178.339844 147.621094 198.628906 127.175781 C 219.078125 106.894531 247.328125 94.25 278.371094 94.25 Z M 278.371094 94.25 " fill-opacity="1" fill-rule="evenodd"/><path fill="#f9eab0" d="M 219.59375 209.332031 C 220.8125 213.664062 218.210938 218.160156 213.878906 219.378906 C 209.542969 220.597656 205.019531 217.996094 203.828125 213.664062 C 200.359375 200.476562 201.390625 186.964844 206.429688 174.835938 C 211.4375 162.867188 220.296875 152.46875 232.078125 145.535156 C 232.242188 145.371094 232.433594 145.371094 232.59375 145.210938 C 234.84375 143.992188 237.089844 142.9375 239.175781 141.90625 C 239.367188 141.90625 239.527344 141.746094 239.691406 141.746094 C 242.128906 140.6875 244.378906 140.011719 246.816406 139.308594 C 251.148438 138.089844 255.644531 140.6875 256.863281 145.019531 C 258.082031 149.351562 255.484375 153.875 251.148438 155.066406 C 249.414062 155.609375 247.683594 156.121094 246.109375 156.800781 C 245.949219 156.800781 245.949219 156.988281 245.757812 156.988281 C 244.023438 157.667969 242.480469 158.53125 240.910156 159.238281 C 240.746094 159.398438 240.746094 159.398438 240.558594 159.398438 C 231.890625 164.4375 225.496094 172.074219 221.839844 180.738281 C 217.695312 189.726562 216.992188 199.613281 219.59375 209.332031 Z M 219.59375 209.332031 " fill-opacity="1" fill-rule="evenodd"/><path fill="#ffae06" d="M 258.082031 72.070312 C 254.265625 64.082031 252.53125 56.636719 252.53125 49.894531 C 252.53125 37.058594 258.246094 26.660156 265.53125 18.859375 C 272.304688 11.578125 280.621094 6.378906 286.335938 3.617188 C 290.832031 1.367188 294.839844 0.3125 296.222656 0.3125 C 300.71875 0.3125 304.375 3.96875 304.375 8.464844 C 304.375 9.84375 304.023438 11.0625 303.507812 12.089844 C 299.851562 21.296875 297.25 30.289062 297.089844 39.144531 C 296.734375 47.808594 298.46875 56.472656 303.320312 65.136719 C 305.566406 69.121094 304.023438 73.964844 300.203125 76.214844 C 298.984375 76.917969 297.601562 77.269531 296.222656 77.269531 L 265.53125 77.269531 C 262.226562 77.082031 259.300781 75.023438 258.082031 72.070312 Z M 258.082031 72.070312 " fill-opacity="1" fill-rule="evenodd"/><path fill="#ffae06" d="M 191.339844 100.828125 C 183.890625 95.820312 178.691406 90.078125 175.222656 84.203125 C 168.804688 73.101562 168.453125 61.320312 170.890625 50.921875 C 173.136719 41.039062 177.632812 32.5625 181.292969 27.175781 C 184.054688 23.03125 187.007812 20.078125 188.226562 19.375 C 192.207031 17.128906 197.054688 18.507812 199.304688 22.328125 C 199.820312 23.195312 200.171875 24.222656 200.359375 25.277344 C 201.742188 35.324219 204.152344 44.503906 208.324219 52.65625 C 212.496094 60.292969 218.210938 66.871094 226.6875 71.882812 C 230.507812 74.15625 231.890625 79.164062 229.480469 82.984375 C 228.773438 84.203125 227.746094 85.230469 226.527344 85.933594 L 200.171875 101.179688 C 197.21875 102.914062 193.75 102.5625 191.339844 100.828125 Z M 191.339844 100.828125 " fill-opacity="1" fill-rule="evenodd"/><path fill="#ffae06" d="M 149.734375 157.855469 C 140.550781 157.339844 133.078125 154.90625 127.007812 151.4375 C 115.742188 145.019531 109.671875 134.972656 106.558594 124.738281 C 103.605469 115.207031 103.28125 105.511719 103.796875 99.09375 C 104.148438 94.25 105.175781 90.078125 105.882812 88.886719 C 108.128906 84.878906 113.140625 83.6875 116.960938 85.933594 C 117.828125 86.449219 118.691406 87.152344 119.398438 88.019531 C 125.628906 95.980469 132.398438 102.75 140.011719 107.597656 C 147.296875 112.28125 155.800781 115.042969 165.5 115.042969 C 170.023438 115.042969 173.652344 118.863281 173.488281 123.359375 C 173.488281 124.738281 173.136719 126.148438 172.433594 127.339844 L 157.183594 153.875 C 155.613281 156.476562 152.6875 158.019531 149.734375 157.855469 Z M 149.734375 157.855469 " fill-opacity="1" fill-rule="evenodd"/><g clip-path="url(#217709cf2e)"><path fill="#ffae06" d="M 143.476562 227.339844 C 135.515625 231.15625 128.066406 232.890625 121.292969 232.890625 C 108.480469 232.890625 98.078125 227.175781 90.277344 219.894531 C 82.992188 213.125 77.792969 204.808594 75 199.097656 C 72.753906 194.601562 71.722656 190.59375 71.722656 189.214844 C 71.722656 184.71875 75.355469 181.0625 79.878906 181.0625 C 81.257812 181.0625 82.289062 181.414062 83.507812 181.929688 C 92.691406 185.585938 101.710938 188.183594 110.539062 188.347656 C 119.207031 188.699219 127.875 186.964844 136.542969 182.117188 C 140.550781 179.871094 145.402344 181.414062 147.648438 185.234375 C 148.351562 186.449219 148.679688 187.832031 148.679688 189.214844 L 148.679688 219.730469 C 148.679688 223.195312 146.429688 226.121094 143.476562 227.339844 Z M 143.476562 227.339844 " fill-opacity="1" fill-rule="evenodd"/></g><path fill="#ffae06" d="M 172.269531 294.0625 C 167.234375 301.507812 161.519531 306.707031 155.613281 310.171875 C 144.34375 316.589844 132.75 316.941406 122.351562 314.507812 C 112.464844 312.257812 103.957031 307.761719 98.59375 304.109375 C 94.421875 301.347656 91.46875 298.394531 90.792969 297.175781 C 88.546875 293.195312 89.925781 288.347656 93.746094 286.101562 C 94.613281 285.585938 95.640625 285.234375 96.671875 285.042969 C 106.746094 283.664062 115.929688 281.253906 124.082031 277.082031 C 131.695312 272.914062 138.277344 267.199219 143.316406 258.722656 C 145.5625 254.90625 150.601562 253.523438 154.421875 255.933594 C 155.613281 256.640625 156.667969 257.667969 157.347656 258.886719 L 172.625 285.398438 C 174.355469 287.996094 174.167969 291.460938 172.269531 294.0625 Z M 172.269531 294.0625 " fill-opacity="1" fill-rule="evenodd"/><path fill="#ffae06" d="M 229.289062 335.65625 C 228.773438 344.835938 226.363281 352.308594 222.898438 358.375 C 216.476562 369.449219 206.429688 375.515625 196.1875 378.816406 C 186.65625 381.769531 176.957031 382.09375 170.539062 381.582031 C 165.6875 381.226562 161.519531 380.199219 160.300781 379.496094 C 156.316406 377.246094 155.097656 372.238281 157.347656 368.417969 C 157.886719 367.554688 158.566406 366.6875 159.433594 365.984375 C 167.421875 359.753906 174.167969 352.984375 179.015625 345.375 C 183.703125 338.089844 186.492188 329.589844 186.65625 319.894531 C 186.65625 315.371094 190.472656 311.746094 194.96875 311.90625 C 196.542969 311.90625 197.921875 312.449219 199.140625 313.125 L 225.308594 328.207031 C 227.90625 329.589844 229.480469 332.539062 229.289062 335.65625 Z M 229.289062 335.65625 " fill-opacity="1" fill-rule="evenodd"/><path fill="#ffae06" d="M 298.820312 341.910156 C 302.640625 349.871094 304.375 357.316406 304.375 364.085938 C 304.375 376.894531 298.632812 387.292969 291.375 395.09375 C 284.601562 402.375 276.285156 407.574219 270.570312 410.363281 C 266.046875 412.613281 262.066406 413.640625 260.683594 413.640625 C 256.160156 413.640625 252.53125 410.011719 252.53125 405.492188 C 252.53125 404.109375 252.882812 402.890625 253.398438 401.863281 C 257.027344 392.683594 259.628906 383.664062 259.816406 374.835938 C 260.167969 366.171875 258.433594 357.507812 253.558594 348.84375 C 251.3125 344.835938 252.882812 339.988281 256.703125 337.738281 C 257.894531 337.035156 259.300781 336.710938 260.683594 336.710938 L 291.183594 336.710938 C 294.652344 336.710938 297.601562 338.769531 298.820312 341.910156 Z M 298.820312 341.910156 " fill-opacity="1" fill-rule="evenodd"/><path fill="#ffae06" d="M 365.210938 312.960938 C 372.851562 317.972656 378.050781 323.875 381.519531 329.941406 C 387.910156 341.042969 388.261719 352.824219 385.851562 363.222656 C 383.578125 373.105469 379.082031 381.582031 375.453125 386.777344 C 372.660156 390.949219 369.707031 393.902344 368.515625 394.578125 C 364.507812 396.824219 359.660156 395.445312 357.410156 391.625 C 356.898438 390.761719 356.542969 389.730469 356.382812 388.703125 C 354.972656 378.628906 352.5625 369.449219 348.390625 361.296875 C 344.246094 353.6875 338.503906 347.109375 330.027344 342.074219 C 326.207031 339.824219 324.824219 334.789062 327.238281 330.96875 C 327.941406 329.777344 328.96875 328.722656 330.1875 328.046875 L 356.707031 312.773438 C 359.496094 311.039062 362.773438 311.230469 365.210938 312.960938 Z M 365.210938 312.960938 " fill-opacity="1" fill-rule="evenodd"/><path fill="#ffae06" d="M 407.171875 256.125 C 416.351562 256.640625 423.800781 259.050781 429.871094 262.515625 C 440.976562 268.933594 447.042969 278.980469 450.320312 289.214844 C 453.273438 298.746094 453.625 308.441406 453.109375 314.859375 C 452.757812 319.707031 451.726562 323.875 451.023438 325.09375 C 448.777344 329.074219 443.738281 330.292969 439.917969 328.046875 C 439.050781 327.503906 438.183594 326.828125 437.507812 325.960938 C 431.25 317.972656 424.507812 311.230469 416.867188 306.382812 C 409.582031 301.699219 401.101562 298.910156 391.378906 298.746094 C 386.882812 298.746094 383.253906 294.929688 383.253906 290.433594 C 383.253906 289.050781 383.578125 287.644531 384.28125 286.453125 L 399.53125 259.914062 C 401.101562 257.316406 404.054688 255.933594 407.171875 256.125 Z M 407.171875 256.125 " fill-opacity="1" fill-rule="evenodd"/><path fill="#ffae06" d="M 413.398438 186.449219 C 421.390625 182.632812 428.839844 180.898438 435.585938 180.898438 C 448.421875 180.898438 458.824219 186.613281 466.625 193.898438 C 473.914062 200.667969 479.113281 208.980469 481.875 214.695312 C 484.125 219.1875 485.179688 223.195312 485.179688 224.578125 C 485.179688 229.074219 481.523438 232.730469 477.027344 232.730469 C 475.644531 232.730469 474.425781 232.375 473.398438 231.863281 C 464.1875 228.207031 455.195312 225.605469 446.339844 225.445312 C 437.671875 225.09375 429.003906 226.824219 420.335938 231.671875 C 416.351562 233.921875 411.503906 232.375 409.257812 228.558594 C 408.550781 227.339844 408.199219 225.957031 408.199219 224.578125 L 408.199219 194.058594 C 408.199219 190.59375 410.449219 187.667969 413.398438 186.449219 Z M 413.398438 186.449219 " fill-opacity="1" fill-rule="evenodd"/><path fill="#ffae06" d="M 384.445312 120.082031 C 389.480469 112.445312 395.386719 107.246094 401.265625 103.78125 C 412.535156 97.363281 424.152344 97.199219 434.554688 99.449219 C 444.441406 101.695312 452.921875 106.21875 458.121094 109.84375 C 462.292969 112.609375 465.246094 115.558594 465.921875 116.777344 C 468.199219 120.757812 466.789062 125.605469 462.996094 127.878906 C 462.128906 128.394531 461.074219 128.746094 460.042969 128.910156 C 449.996094 130.289062 440.785156 132.726562 432.660156 136.871094 C 425.019531 140.878906 418.4375 146.753906 413.398438 155.257812 C 411.152344 159.074219 406.113281 160.457031 402.320312 158.019531 C 401.101562 157.339844 400.046875 156.285156 399.371094 155.066406 L 384.121094 128.558594 C 382.546875 125.957031 382.710938 122.679688 384.445312 120.082031 Z M 384.445312 120.082031 " fill-opacity="1" fill-rule="evenodd"/><path fill="#ffae06" d="M 327.589844 78.300781 C 328.101562 69.121094 330.539062 61.671875 334.007812 55.769531 C 340.425781 44.503906 350.476562 38.4375 360.714844 35.324219 C 370.25 32.375 379.949219 32.019531 386.367188 32.5625 C 391.214844 32.886719 395.386719 33.945312 396.578125 34.621094 C 400.589844 36.894531 401.78125 41.90625 399.53125 45.722656 C 399.015625 46.589844 398.3125 47.457031 397.445312 48.160156 C 389.480469 54.386719 382.710938 61.15625 377.863281 68.765625 C 373.175781 76.050781 370.414062 84.554688 370.25 94.25 C 370.25 98.742188 366.429688 102.398438 361.90625 102.398438 C 360.363281 102.398438 358.980469 101.882812 357.761719 101.179688 L 331.570312 86.097656 C 328.96875 84.363281 327.425781 81.25 327.589844 78.300781 Z M 327.589844 78.300781 " fill-opacity="1" fill-rule="evenodd"/><path fill="#fab1a6" d="M 149.03125 521.441406 C 151.46875 517.625 156.480469 516.59375 160.300781 519.003906 C 164.117188 521.441406 165.148438 526.476562 162.738281 530.269531 L 150.765625 548.464844 C 148.351562 552.285156 143.316406 553.339844 139.496094 550.902344 C 135.675781 548.464844 134.648438 543.457031 137.246094 539.636719 Z M 149.03125 521.441406 " fill-opacity="1" fill-rule="nonzero"/><path fill="#fab1a6" d="M 196.542969 521.441406 C 198.953125 517.625 203.992188 516.59375 207.808594 519.003906 C 211.628906 521.441406 212.65625 526.476562 210.21875 530.269531 L 198.273438 548.464844 C 195.835938 552.285156 190.824219 553.339844 187.007812 550.902344 C 183.1875 548.464844 182.15625 543.457031 184.570312 539.636719 Z M 196.542969 521.441406 " fill-opacity="1" fill-rule="nonzero"/><path fill="#fab1a6" d="M 244.023438 521.441406 C 246.460938 517.625 251.5 516.59375 255.292969 519.003906 C 259.113281 521.441406 260.167969 526.476562 257.730469 530.269531 L 245.757812 548.464844 C 243.347656 552.285156 238.308594 553.339844 234.492188 550.902344 C 230.699219 548.464844 229.640625 543.457031 232.078125 539.636719 Z M 244.023438 521.441406 " fill-opacity="1" fill-rule="nonzero"/><path fill="#fab1a6" d="M 291.699219 521.441406 C 294.136719 517.625 299.175781 516.59375 302.964844 519.003906 C 306.785156 521.441406 307.84375 526.476562 305.402344 530.269531 L 293.433594 548.464844 C 291.019531 552.285156 285.984375 553.339844 282.164062 550.902344 C 278.371094 548.464844 277.316406 543.457031 279.753906 539.636719 Z M 291.699219 521.441406 " fill-opacity="1" fill-rule="nonzero"/><path fill="#fab1a6" d="M 339.207031 521.441406 C 341.648438 517.625 346.65625 516.59375 350.476562 519.003906 C 354.296875 521.441406 355.324219 526.476562 352.914062 530.269531 L 340.941406 548.464844 C 338.503906 552.285156 333.492188 553.339844 329.675781 550.902344 C 325.855469 548.464844 324.824219 543.457031 327.238281 539.636719 Z M 339.207031 521.441406 " fill-opacity="1" fill-rule="nonzero"/><path fill="#fab1a6" d="M 149.03125 576.382812 C 151.46875 572.566406 156.480469 571.535156 160.300781 573.945312 C 164.117188 576.382812 165.148438 581.394531 162.738281 585.210938 L 150.765625 603.410156 C 148.351562 607.226562 143.316406 608.253906 139.496094 605.847656 C 135.675781 603.410156 134.648438 598.398438 137.246094 594.582031 Z M 149.03125 576.382812 " fill-opacity="1" fill-rule="nonzero"/><path fill="#fab1a6" d="M 196.542969 576.382812 C 198.953125 572.566406 203.992188 571.535156 207.808594 573.945312 C 211.628906 576.382812 212.65625 581.394531 210.21875 585.210938 L 198.273438 603.410156 C 195.835938 607.226562 190.824219 608.253906 187.007812 605.847656 C 183.1875 603.410156 182.15625 598.398438 184.570312 594.582031 Z M 196.542969 576.382812 " fill-opacity="1" fill-rule="nonzero"/><path fill="#fab1a6" d="M 244.023438 576.382812 C 246.460938 572.566406 251.5 571.535156 255.292969 573.945312 C 259.113281 576.382812 260.167969 581.394531 257.730469 585.210938 L 245.757812 603.410156 C 243.347656 607.226562 238.308594 608.253906 234.492188 605.847656 C 230.699219 603.410156 229.640625 598.398438 232.078125 594.582031 Z M 244.023438 576.382812 " fill-opacity="1" fill-rule="nonzero"/><path fill="#fab1a6" d="M 291.699219 576.382812 C 294.136719 572.566406 299.175781 571.535156 302.964844 573.945312 C 306.785156 576.382812 307.84375 581.394531 305.402344 585.210938 L 293.433594 603.410156 C 291.019531 607.226562 285.984375 608.253906 282.164062 605.847656 C 278.371094 603.410156 277.316406 598.398438 279.753906 594.582031 Z M 291.699219 576.382812 " fill-opacity="1" fill-rule="nonzero"/><path fill="#fab1a6" d="M 339.207031 576.382812 C 341.648438 572.566406 346.65625 571.535156 350.476562 573.945312 C 354.296875 576.382812 355.324219 581.394531 352.914062 585.210938 L 340.941406 603.410156 C 338.503906 607.226562 333.492188 608.253906 329.675781 605.847656 C 325.855469 603.410156 324.824219 598.398438 327.238281 594.582031 Z M 339.207031 576.382812 " fill-opacity="1" fill-rule="nonzero"/><path fill="#f9eab0" d="M 184.054688 413.125 C 180.75 410.011719 180.75 404.8125 183.890625 401.511719 C 187.007812 398.234375 192.207031 398.234375 195.484375 401.347656 C 211.085938 416.242188 204.855469 425.960938 198.273438 436.007812 C 194.96875 441.019531 191.691406 446.21875 198.953125 454.367188 C 201.90625 457.671875 201.742188 462.871094 198.4375 465.820312 C 195.160156 468.746094 189.960938 468.582031 187.007812 465.28125 C 171.214844 447.789062 178.148438 437.226562 184.757812 427.152344 C 187.359375 422.820312 189.960938 418.679688 184.054688 413.125 Z M 184.054688 413.125 " fill-opacity="1" fill-rule="evenodd"/><path fill="#f9eab0" d="M 220.621094 413.125 C 217.34375 410.011719 217.34375 404.8125 220.460938 401.511719 C 223.574219 398.234375 228.773438 398.234375 232.078125 401.347656 C 247.683594 416.242188 241.425781 425.960938 234.84375 436.007812 C 231.566406 441.019531 228.261719 446.21875 235.546875 454.367188 C 238.5 457.671875 238.308594 462.871094 235.03125 465.820312 C 231.726562 468.746094 226.527344 468.582031 223.574219 465.28125 C 207.808594 447.789062 214.742188 437.226562 221.324219 427.152344 C 223.925781 422.820312 226.527344 418.679688 220.621094 413.125 Z M 220.621094 413.125 " fill-opacity="1" fill-rule="evenodd"/><path fill="#f9eab0" d="M 341.457031 401.347656 C 344.761719 398.234375 349.960938 398.394531 353.078125 401.511719 C 356.191406 404.8125 356.03125 410.011719 352.914062 413.125 C 347.011719 418.839844 349.609375 422.820312 352.5625 427.152344 C 359.144531 437.226562 366.078125 447.949219 350.316406 465.28125 C 347.363281 468.582031 342.160156 468.9375 338.855469 465.820312 C 335.578125 462.871094 335.226562 457.671875 338.34375 454.367188 C 345.789062 446.21875 342.324219 441.019531 339.046875 436.007812 C 332.113281 425.960938 325.855469 416.242188 341.457031 401.347656 Z M 341.457031 401.347656 " fill-opacity="1" fill-rule="evenodd"/><path fill="#f9eab0" d="M 304.699219 401.347656 C 308.003906 398.234375 313.207031 398.394531 316.320312 401.511719 C 319.433594 404.8125 319.273438 410.011719 316.15625 413.125 C 310.253906 418.839844 312.851562 422.820312 315.804688 427.152344 C 322.386719 437.226562 329.320312 447.949219 313.558594 465.28125 C 310.605469 468.582031 305.402344 468.9375 302.097656 465.820312 C 298.820312 462.871094 298.46875 457.671875 301.585938 454.367188 C 309.035156 446.21875 305.566406 441.019531 302.289062 436.007812 C 295.515625 425.960938 289.289062 416.242188 304.699219 401.347656 Z M 304.699219 401.347656 " fill-opacity="1" fill-rule="evenodd"/><g fill="#000000" fill-opacity="1"><g transform="translate(26.67448, 22.87189)"><g><path d="M 0.421875 0 L 0.40625 -0.078125 L 0.390625 -0.078125 C 0.367188 -0.046875 0.34375 -0.0195312 0.3125 0 C 0.289062 0.0078125 0.257812 0.015625 0.21875 0.015625 C 0.164062 0.015625 0.125 0 0.09375 -0.03125 C 0.0625 -0.0625 0.046875 -0.0976562 0.046875 -0.140625 C 0.046875 -0.253906 0.132812 -0.3125 0.3125 -0.3125 L 0.390625 -0.328125 L 0.390625 -0.359375 C 0.390625 -0.398438 0.378906 -0.429688 0.359375 -0.453125 C 0.347656 -0.472656 0.320312 -0.484375 0.28125 -0.484375 C 0.238281 -0.484375 0.1875 -0.46875 0.125 -0.4375 L 0.109375 -0.5 C 0.128906 -0.507812 0.15625 -0.519531 0.1875 -0.53125 C 0.21875 -0.539062 0.25 -0.546875 0.28125 -0.546875 C 0.351562 -0.546875 0.398438 -0.53125 0.421875 -0.5 C 0.453125 -0.46875 0.46875 -0.421875 0.46875 -0.359375 L 0.46875 0 Z M 0.234375 -0.0625 C 0.285156 -0.0625 0.320312 -0.0703125 0.34375 -0.09375 C 0.375 -0.125 0.390625 -0.164062 0.390625 -0.21875 L 0.390625 -0.265625 L 0.3125 -0.265625 C 0.25 -0.253906 0.203125 -0.238281 0.171875 -0.21875 C 0.140625 -0.207031 0.125 -0.179688 0.125 -0.140625 C 0.125 -0.117188 0.132812 -0.0976562 0.15625 -0.078125 C 0.175781 -0.0664062 0.203125 -0.0625 0.234375 -0.0625 Z M 0.234375 -0.0625 "/></g></g></g></svg>