<svg xmlns="http://www.w3.org/2000/svg" xmlns:xlink="http://www.w3.org/1999/xlink" width="1000" zoomAndPan="magnify" viewBox="0 0 750 749.999995" height="1000" preserveAspectRatio="xMidYMid meet" version="1.0"><defs><g/></defs><path fill="#fcd0a9" d="M 375 0 C 167.855469 0 0 167.90625 0 375 C 0 582.144531 167.90625 750 375 750 C 582.144531 750 750 582.09375 750 375 C 750 167.855469 582.09375 0 375 0 Z M 375 0 " fill-opacity="1" fill-rule="nonzero"/><path fill="#ffdcbc" d="M 56.324219 375 C 56.324219 199 199 56.324219 375 56.324219 C 551 56.324219 693.675781 199 693.675781 375 C 693.675781 551 551 693.671875 375 693.671875 C 199 693.671875 56.324219 551 56.324219 375 Z M 56.324219 375 " fill-opacity="1" fill-rule="nonzero"/><path fill="#c19771" d="M 245.742188 201.269531 C 245.742188 176.332031 265.246094 156.117188 289.304688 156.117188 C 313.363281 156.117188 332.867188 176.332031 332.867188 201.269531 C 332.867188 226.207031 313.363281 246.421875 289.304688 246.421875 C 265.246094 246.421875 245.742188 226.207031 245.742188 201.269531 Z M 245.742188 201.269531 " fill-opacity="1" fill-rule="nonzero"/><path fill="#c19771" d="M 440.90625 580.21875 C 440.90625 563.140625 454.261719 549.300781 470.734375 549.300781 C 487.207031 549.300781 500.558594 563.140625 500.558594 580.21875 C 500.558594 597.292969 487.207031 611.132812 470.734375 611.132812 C 454.261719 611.132812 440.90625 597.292969 440.90625 580.21875 Z M 440.90625 580.21875 " fill-opacity="1" fill-rule="nonzero"/><path fill="#c19771" d="M 240.371094 552.867188 C 240.371094 527.929688 259.875 507.710938 283.933594 507.710938 C 307.992188 507.710938 327.496094 527.929688 327.496094 552.867188 C 327.496094 577.804688 307.992188 598.019531 283.933594 598.019531 C 259.875 598.019531 240.371094 577.804688 240.371094 552.867188 Z M 240.371094 552.867188 " fill-opacity="1" fill-rule="nonzero"/><path fill="#c19771" d="M 548.984375 413.78125 C 548.984375 388.84375 568.488281 368.625 592.546875 368.625 C 616.605469 368.625 636.113281 388.84375 636.113281 413.78125 C 636.113281 438.714844 616.605469 458.933594 592.546875 458.933594 C 568.488281 458.933594 548.984375 438.714844 548.984375 413.78125 Z M 548.984375 413.78125 " fill-opacity="1" fill-rule="nonzero"/><path fill="#c19771" d="M 117.671875 376.792969 C 117.671875 339.339844 146.964844 308.976562 183.101562 308.976562 C 219.234375 308.976562 248.53125 339.339844 248.53125 376.792969 C 248.53125 414.25 219.234375 444.613281 183.101562 444.613281 C 146.964844 444.613281 117.671875 414.25 117.671875 376.792969 Z M 117.671875 376.792969 " fill-opacity="1" fill-rule="nonzero"/><path fill="#c19771" d="M 336.441406 425.125 C 336.441406 387.671875 365.734375 357.308594 401.871094 357.308594 C 438.003906 357.308594 467.296875 387.671875 467.296875 425.125 C 467.296875 462.582031 438.003906 492.945312 401.871094 492.945312 C 365.734375 492.945312 336.441406 462.582031 336.441406 425.125 Z M 336.441406 425.125 " fill-opacity="1" fill-rule="nonzero"/><path fill="#c19771" d="M 433.742188 226.074219 C 433.742188 188.617188 463.035156 158.253906 499.171875 158.253906 C 535.304688 158.253906 564.601562 188.617188 564.601562 226.074219 C 564.601562 263.527344 535.304688 293.890625 499.171875 293.890625 C 463.035156 293.890625 433.742188 263.527344 433.742188 226.074219 Z M 433.742188 226.074219 " fill-opacity="1" fill-rule="nonzero"/><g fill="#000000" fill-opacity="1"><g transform="translate(26.67448, 22.87189)"><g><path d="M 0.421875 0 L 0.40625 -0.078125 L 0.390625 -0.078125 C 0.367188 -0.046875 0.34375 -0.0195312 0.3125 0 C 0.289062 0.0078125 0.257812 0.015625 0.21875 0.015625 C 0.164062 0.015625 0.125 0 0.09375 -0.03125 C 0.0625 -0.0625 0.046875 -0.0976562 0.046875 -0.140625 C 0.046875 -0.253906 0.132812 -0.3125 0.3125 -0.3125 L 0.390625 -0.328125 L 0.390625 -0.359375 C 0.390625 -0.398438 0.378906 -0.429688 0.359375 -0.453125 C 0.347656 -0.472656 0.320312 -0.484375 0.28125 -0.484375 C 0.238281 -0.484375 0.1875 -0.46875 0.125 -0.4375 L 0.109375 -0.5 C 0.128906 -0.507812 0.15625 -0.519531 0.1875 -0.53125 C 0.21875 -0.539062 0.25 -0.546875 0.28125 -0.546875 C 0.351562 -0.546875 0.398438 -0.53125 0.421875 -0.5 C 0.453125 -0.46875 0.46875 -0.421875 0.46875 -0.359375 L 0.46875 0 Z M 0.234375 -0.0625 C 0.285156 -0.0625 0.320312 -0.0703125 0.34375 -0.09375 C 0.375 -0.125 0.390625 -0.164062 0.390625 -0.21875 L 0.390625 -0.265625 L 0.3125 -0.265625 C 0.25 -0.253906 0.203125 -0.238281 0.171875 -0.21875 C 0.140625 -0.207031 0.125 -0.179688 0.125 -0.140625 C 0.125 -0.117188 0.132812 -0.0976562 0.15625 -0.078125 C 0.175781 -0.0664062 0.203125 -0.0625 0.234375 -0.0625 Z M 0.234375 -0.0625 "/></g></g></g></svg>