<svg xmlns="http://www.w3.org/2000/svg" xmlns:xlink="http://www.w3.org/1999/xlink" width="1000" zoomAndPan="magnify" viewBox="0 0 750 749.999995" height="1000" preserveAspectRatio="xMidYMid meet" version="1.0"><defs><g/><clipPath id="76336f59a8"><path d="M 82.5 1.394531 L 667.488281 1.394531 L 667.488281 748.3125 L 82.5 748.3125 Z M 82.5 1.394531 " clip-rule="nonzero"/></clipPath></defs><path fill="#ffbd59" d="M 359.445312 285.148438 L 359.445312 350.859375 C 359.445312 382.832031 342.375 401.898438 313.742188 401.898438 C 285.90625 401.898438 269.976562 383.59375 269.976562 351.445312 L 269.976562 285.148438 L 299.839844 285.148438 L 299.839844 351.738281 C 299.839844 366.902344 304.589844 374.617188 314.125 374.617188 C 318.40625 374.617188 329.585938 374.617188 329.585938 351.738281 L 329.585938 285.148438 L 359.445312 285.148438 " fill-opacity="1" fill-rule="nonzero"/><path fill="#ffbd59" d="M 479.980469 285.148438 L 438.796875 400.375 L 412.660156 400.375 L 375.082031 285.148438 L 406.644531 285.148438 C 406.644531 285.148438 425.832031 345.519531 426.679688 348.394531 C 427.738281 345.34375 428.675781 342.292969 429.730469 339.417969 L 448.332031 285.148438 L 479.980469 285.148438 " fill-opacity="1" fill-rule="nonzero"/><path fill="#ffbd59" d="M 545.398438 394.976562 L 545.398438 401.898438 L 612.925781 401.898438 L 543.960938 369.984375 L 544.78125 380.425781 C 545.191406 385.617188 545.398438 390.371094 545.398438 394.976562 " fill-opacity="1" fill-rule="nonzero"/><path fill="#ffbd59" d="M 153.78125 401.898438 L 205.703125 401.898438 L 205.703125 394.976562 C 205.703125 390.402344 205.910156 385.5 206.320312 380.425781 L 207.171875 369.984375 L 137.03125 401.898438 L 153.78125 401.898438 " fill-opacity="1" fill-rule="nonzero"/><path fill="#ffbd59" d="M 526.449219 316.976562 C 530.9375 325.484375 534.632812 334.429688 537.449219 343.496094 L 540.558594 353.613281 L 600.839844 301.722656 L 521.492188 307.589844 L 526.449219 316.976562 " fill-opacity="1" fill-rule="nonzero"/><path fill="#ffbd59" d="M 213.683594 343.496094 C 216.46875 334.429688 220.167969 325.511719 224.683594 316.976562 L 229.613281 307.589844 L 150.292969 301.722656 L 210.574219 353.613281 L 213.683594 343.496094 " fill-opacity="1" fill-rule="nonzero"/><path fill="#ffbd59" d="M 485.027344 265.113281 C 492.363281 271.273438 499.226562 278.136719 505.414062 285.5 L 512.164062 293.507812 L 548.242188 222.285156 L 477.019531 258.367188 L 485.027344 265.113281 " fill-opacity="1" fill-rule="nonzero"/><path fill="#ffbd59" d="M 266.074219 265.113281 L 274.113281 258.367188 L 202.890625 222.285156 L 238.96875 293.507812 L 245.71875 285.5 C 251.90625 278.136719 258.742188 271.273438 266.074219 265.113281 " fill-opacity="1" fill-rule="nonzero"/><path fill="#ffbd59" d="M 427.035156 233.078125 C 436.097656 235.894531 445.015625 239.59375 453.550781 244.082031 L 462.9375 249.007812 L 468.804688 169.6875 L 416.914062 229.96875 L 427.035156 233.078125 " fill-opacity="1" fill-rule="nonzero"/><path fill="#ffbd59" d="M 297.550781 244.082031 C 306.117188 239.59375 315.035156 235.894531 324.097656 233.078125 L 334.21875 229.96875 L 282.328125 169.6875 L 288.195312 249.007812 L 297.550781 244.082031 " fill-opacity="1" fill-rule="nonzero"/><path fill="#ffbd59" d="M 400.542969 226.597656 L 375.550781 151.121094 L 350.585938 226.597656 L 361.03125 225.746094 C 366.078125 225.335938 370.945312 225.128906 375.550781 225.128906 C 380.15625 225.128906 385.054688 225.335938 390.101562 225.746094 L 400.542969 226.597656 " fill-opacity="1" fill-rule="nonzero"/><path fill="#ffbd59" d="M 211.628906 433.933594 L 211.628906 446.339844 L 215.152344 446.339844 C 219.933594 446.339844 222.308594 444.257812 222.308594 440.0625 C 222.308594 435.988281 219.933594 433.933594 215.152344 433.933594 Z M 211.628906 453.148438 L 211.628906 466.875 L 202.652344 466.875 L 202.652344 427.039062 L 216.707031 427.039062 C 226.738281 427.039062 231.753906 431.261719 231.753906 439.742188 C 231.753906 443.730469 230.316406 446.957031 227.441406 449.449219 C 224.566406 451.914062 220.722656 453.148438 215.882812 453.148438 L 211.628906 453.148438 " fill-opacity="1" fill-rule="nonzero"/><path fill="#ffbd59" d="M 246.566406 433.757812 L 246.566406 444.84375 L 250.441406 444.84375 C 252.375 444.84375 253.929688 444.289062 255.105469 443.171875 C 256.277344 442.058594 256.863281 440.652344 256.863281 438.976562 C 256.863281 435.488281 254.78125 433.757812 250.617188 433.757812 Z M 271.003906 466.875 L 260.707031 466.875 L 254.515625 456.636719 C 254.046875 455.847656 253.609375 455.140625 253.167969 454.527344 C 252.757812 453.9375 252.316406 453.410156 251.878906 452.972656 C 251.4375 452.53125 250.996094 452.207031 250.527344 451.972656 C 250.058594 451.738281 249.53125 451.621094 248.972656 451.621094 L 246.566406 451.621094 L 246.566406 466.875 L 237.589844 466.875 L 237.589844 427.039062 L 251.820312 427.039062 C 261.46875 427.039062 266.308594 430.648438 266.308594 437.863281 C 266.308594 439.273438 266.105469 440.535156 265.695312 441.707031 C 265.253906 442.910156 264.636719 443.964844 263.875 444.902344 C 263.082031 445.84375 262.144531 446.664062 261.058594 447.339844 C 259.945312 448.042969 258.710938 448.570312 257.363281 448.953125 L 257.363281 449.070312 C 257.949219 449.246094 258.535156 449.539062 259.09375 449.980469 C 259.652344 450.390625 260.179688 450.859375 260.707031 451.417969 C 261.234375 451.972656 261.703125 452.589844 262.171875 453.234375 C 262.644531 453.851562 263.082031 454.496094 263.492188 455.082031 L 271.003906 466.875 " fill-opacity="1" fill-rule="nonzero"/><path fill="#ffbd59" d="M 291.949219 434.078125 C 288.808594 434.078125 286.316406 435.28125 284.46875 437.628906 C 282.589844 440.003906 281.679688 443.113281 281.679688 447.015625 C 281.679688 450.945312 282.589844 454.085938 284.46875 456.375 C 286.316406 458.660156 288.722656 459.804688 291.714844 459.804688 C 294.824219 459.804688 297.285156 458.691406 299.078125 456.460938 C 300.894531 454.230469 301.804688 451.152344 301.804688 447.191406 C 301.804688 443.054688 300.925781 439.828125 299.164062 437.542969 C 297.40625 435.253906 295 434.078125 291.949219 434.078125 Z M 291.566406 467.578125 C 285.875 467.578125 281.210938 465.703125 277.605469 462.007812 C 274.023438 458.28125 272.234375 453.441406 272.234375 447.484375 C 272.234375 441.179688 274.054688 436.105469 277.691406 432.203125 C 281.359375 428.328125 286.167969 426.363281 292.210938 426.363281 C 297.875 426.363281 302.480469 428.242188 306 431.96875 C 309.488281 435.664062 311.25 440.59375 311.25 446.664062 C 311.25 452.941406 309.429688 457.988281 305.792969 461.828125 C 302.15625 465.644531 297.40625 467.578125 291.566406 467.578125 " fill-opacity="1" fill-rule="nonzero"/><path fill="#ffbd59" d="M 345.835938 434.34375 L 334.484375 434.34375 L 334.484375 466.875 L 325.476562 466.875 L 325.476562 434.34375 L 314.183594 434.34375 L 314.183594 427.039062 L 345.835938 427.039062 L 345.835938 434.34375 " fill-opacity="1" fill-rule="nonzero"/><path fill="#ffbd59" d="M 375.082031 466.875 L 351.203125 466.875 L 351.203125 427.039062 L 374.171875 427.039062 L 374.171875 434.34375 L 360.179688 434.34375 L 360.179688 443.203125 L 373.203125 443.203125 L 373.203125 450.476562 L 360.179688 450.476562 L 360.179688 459.601562 L 375.082031 459.601562 L 375.082031 466.875 " fill-opacity="1" fill-rule="nonzero"/><path fill="#ffbd59" d="M 410.046875 465.46875 C 407.144531 466.875 403.332031 467.578125 398.667969 467.578125 C 392.535156 467.578125 387.753906 465.761719 384.234375 462.183594 C 380.742188 458.574219 378.984375 453.792969 378.984375 447.808594 C 378.984375 441.441406 380.949219 436.28125 384.878906 432.320312 C 388.8125 428.359375 393.945312 426.363281 400.222656 426.363281 C 404.09375 426.363281 407.378906 426.863281 410.046875 427.832031 L 410.046875 436.484375 C 407.378906 434.902344 404.328125 434.078125 400.925781 434.078125 C 397.199219 434.078125 394.179688 435.28125 391.890625 437.628906 C 389.574219 439.976562 388.429688 443.171875 388.429688 447.191406 C 388.429688 451.035156 389.515625 454.113281 391.683594 456.375 C 393.855469 458.660156 396.761719 459.804688 400.425781 459.804688 C 403.917969 459.804688 407.144531 458.957031 410.046875 457.253906 L 410.046875 465.46875 " fill-opacity="1" fill-rule="nonzero"/><path fill="#ffbd59" d="M 444.957031 434.34375 L 433.605469 434.34375 L 433.605469 466.875 L 424.597656 466.875 L 424.597656 434.34375 L 413.277344 434.34375 L 413.277344 427.039062 L 444.957031 427.039062 L 444.957031 434.34375 " fill-opacity="1" fill-rule="nonzero"/><path fill="#ffbd59" d="M 462.617188 427.039062 L 462.617188 433.992188 L 459.300781 433.992188 L 459.300781 459.921875 L 462.617188 459.921875 L 462.617188 466.875 L 446.980469 466.875 L 446.980469 459.921875 L 450.324219 459.921875 L 450.324219 433.992188 L 446.980469 433.992188 L 446.980469 427.039062 L 462.617188 427.039062 " fill-opacity="1" fill-rule="nonzero"/><path fill="#ffbd59" d="M 485.554688 434.078125 C 482.417969 434.078125 479.921875 435.28125 478.074219 437.628906 C 476.226562 440.003906 475.289062 443.113281 475.289062 447.015625 C 475.289062 450.945312 476.226562 454.085938 478.074219 456.375 C 479.921875 458.660156 482.359375 459.804688 485.351562 459.804688 C 488.429688 459.804688 490.894531 458.691406 492.714844 456.460938 C 494.53125 454.230469 495.414062 451.152344 495.414062 447.191406 C 495.414062 443.054688 494.5625 439.828125 492.800781 437.542969 C 491.042969 435.253906 488.636719 434.078125 485.554688 434.078125 Z M 485.175781 467.578125 C 479.484375 467.578125 474.820312 465.703125 471.242188 462.007812 C 467.632812 458.28125 465.84375 453.441406 465.84375 447.484375 C 465.84375 441.179688 467.660156 436.105469 471.328125 432.203125 C 474.964844 428.328125 479.804688 426.363281 485.820312 426.363281 C 491.511719 426.363281 496.117188 428.242188 499.605469 431.96875 C 503.128906 435.664062 504.859375 440.59375 504.859375 446.664062 C 504.859375 452.941406 503.070312 457.988281 499.429688 461.828125 C 495.765625 465.644531 491.042969 467.578125 485.175781 467.578125 " fill-opacity="1" fill-rule="nonzero"/><path fill="#ffbd59" d="M 547.335938 466.875 L 538.269531 466.875 L 521.84375 441.851562 C 520.875 440.386719 520.230469 439.273438 519.847656 438.539062 L 519.730469 438.539062 C 519.878906 439.945312 519.964844 442.089844 519.964844 444.992188 L 519.964844 466.875 L 511.488281 466.875 L 511.488281 427.039062 L 521.136719 427.039062 L 536.949219 451.300781 C 537.683594 452.382812 538.359375 453.46875 538.945312 454.527344 L 539.0625 454.527344 C 538.914062 453.617188 538.855469 451.796875 538.855469 449.070312 L 538.855469 427.039062 L 547.335938 427.039062 L 547.335938 466.875 " fill-opacity="1" fill-rule="nonzero"/><g clip-path="url(#76336f59a8)"><path fill="#ffbd59" d="M 123.539062 120.140625 L 123.539062 451.503906 C 123.539062 493.128906 143.367188 532.9375 176.605469 557.988281 L 374.992188 698.0625 L 573.617188 557.8125 C 606.679688 532.730469 626.417969 493.011719 626.417969 451.503906 L 626.417969 120.140625 L 374.992188 44.253906 Z M 374.992188 748.3125 L 152.402344 591.136719 C 108.433594 557.988281 82.5 505.917969 82.5 451.503906 L 82.5 89.664062 L 374.992188 1.367188 L 667.457031 89.664062 L 667.457031 451.503906 C 667.457031 505.917969 641.527344 557.988281 598.082031 590.753906 L 597.585938 591.136719 L 374.992188 748.3125 " fill-opacity="1" fill-rule="nonzero"/></g><g fill="#000000" fill-opacity="1"><g transform="translate(26.67448, 22.87189)"><g><path d="M 0.421875 0 L 0.40625 -0.078125 L 0.390625 -0.078125 C 0.367188 -0.046875 0.34375 -0.0195312 0.3125 0 C 0.289062 0.0078125 0.257812 0.015625 0.21875 0.015625 C 0.164062 0.015625 0.125 0 0.09375 -0.03125 C 0.0625 -0.0625 0.046875 -0.0976562 0.046875 -0.140625 C 0.046875 -0.253906 0.132812 -0.3125 0.3125 -0.3125 L 0.390625 -0.328125 L 0.390625 -0.359375 C 0.390625 -0.398438 0.378906 -0.429688 0.359375 -0.453125 C 0.347656 -0.472656 0.320312 -0.484375 0.28125 -0.484375 C 0.238281 -0.484375 0.1875 -0.46875 0.125 -0.4375 L 0.109375 -0.5 C 0.128906 -0.507812 0.15625 -0.519531 0.1875 -0.53125 C 0.21875 -0.539062 0.25 -0.546875 0.28125 -0.546875 C 0.351562 -0.546875 0.398438 -0.53125 0.421875 -0.5 C 0.453125 -0.46875 0.46875 -0.421875 0.46875 -0.359375 L 0.46875 0 Z M 0.234375 -0.0625 C 0.285156 -0.0625 0.320312 -0.0703125 0.34375 -0.09375 C 0.375 -0.125 0.390625 -0.164062 0.390625 -0.21875 L 0.390625 -0.265625 L 0.3125 -0.265625 C 0.25 -0.253906 0.203125 -0.238281 0.171875 -0.21875 C 0.140625 -0.207031 0.125 -0.179688 0.125 -0.140625 C 0.125 -0.117188 0.132812 -0.0976562 0.15625 -0.078125 C 0.175781 -0.0664062 0.203125 -0.0625 0.234375 -0.0625 Z M 0.234375 -0.0625 "/></g></g></g></svg>