<svg xmlns="http://www.w3.org/2000/svg" xmlns:xlink="http://www.w3.org/1999/xlink" width="1000" zoomAndPan="magnify" viewBox="0 0 750 749.999995" height="1000" preserveAspectRatio="xMidYMid meet" version="1.0"><defs><g/><clipPath id="138ab963c2"><path d="M 0 107.8125 L 750 107.8125 L 750 628 L 0 628 Z M 0 107.8125 " clip-rule="nonzero"/></clipPath><clipPath id="eb5f8193d8"><path d="M 617 590 L 694 590 L 694 642.5625 L 617 642.5625 Z M 617 590 " clip-rule="nonzero"/></clipPath></defs><path fill="#000000" d="M 151.605469 295.441406 L 165.382812 295.441406 L 165.382812 375.042969 L 151.605469 375.042969 Z M 151.605469 295.441406 " fill-opacity="1" fill-rule="nonzero"/><path fill="#000000" d="M 223.933594 408.859375 L 292.820312 369.058594 L 299.710938 381 L 230.824219 420.800781 Z M 223.933594 408.859375 " fill-opacity="1" fill-rule="nonzero"/><path fill="#000000" d="M 125.523438 579.433594 L 194.410156 539.632812 L 201.300781 551.574219 L 132.414062 591.375 Z M 125.523438 579.433594 " fill-opacity="1" fill-rule="nonzero"/><path fill="#000000" d="M 450.273438 460.023438 L 519.160156 420.222656 L 526.050781 432.164062 L 457.164062 471.964844 Z M 450.273438 460.023438 " fill-opacity="1" fill-rule="nonzero"/><path fill="#000000" d="M 617.566406 408.851562 L 686.453125 369.050781 L 693.34375 380.992188 L 624.453125 420.792969 Z M 617.566406 408.851562 " fill-opacity="1" fill-rule="nonzero"/><path fill="#000000" d="M 545.253906 295.441406 L 559.03125 295.441406 L 559.03125 375.042969 L 545.253906 375.042969 Z M 545.253906 295.441406 " fill-opacity="1" fill-rule="nonzero"/><path fill="#000000" d="M 584.617188 124.867188 L 598.394531 124.867188 L 598.394531 204.46875 L 584.617188 204.46875 Z M 584.617188 124.867188 " fill-opacity="1" fill-rule="nonzero"/><g clip-path="url(#138ab963c2)"><path fill="#000000" d="M 719.441406 247.851562 C 710.664062 247.851562 702.730469 251.59375 697.160156 257.558594 L 627.917969 217.539062 L 627.917969 107.8125 L 614.140625 107.8125 L 614.140625 217.539062 L 515.730469 274.402344 L 515.730469 388.125 L 424.207031 440.992188 L 332.683594 388.125 L 332.683594 308.101562 C 346.203125 304.988281 356.300781 292.855469 356.300781 278.378906 C 356.300781 261.558594 342.621094 247.851562 325.792969 247.851562 C 317.015625 247.851562 309.082031 251.59375 303.515625 257.558594 L 227.382812 213.558594 L 128.972656 270.421875 L 59.75 230.417969 C 60.613281 227.601562 61.066406 224.628906 61.066406 221.535156 C 61.066406 204.695312 47.386719 191.007812 30.558594 191.007812 C 13.730469 191.007812 0.0507812 204.695312 0.0507812 221.535156 C 0.0507812 238.355469 13.730469 252.066406 30.558594 252.066406 C 39.335938 252.066406 47.269531 248.324219 52.839844 242.355469 L 122.082031 282.359375 L 122.082031 396.082031 L 220.492188 452.945312 L 220.492188 558.695312 L 125.527344 613.5625 L 132.414062 625.503906 L 234.269531 566.652344 L 234.269531 452.945312 L 325.792969 400.0625 L 417.316406 452.945312 L 417.316406 532.953125 C 403.796875 536.0625 393.699219 548.195312 393.699219 562.671875 C 393.699219 579.511719 407.378906 593.203125 424.207031 593.203125 C 432.984375 593.203125 440.917969 589.480469 446.484375 583.511719 L 522.617188 627.492188 L 621.023438 570.632812 L 715.996094 625.503906 L 722.886719 613.5625 L 627.917969 558.695312 L 627.917969 452.945312 L 726.328125 396.082031 L 726.328125 308.101562 C 739.851562 304.988281 749.949219 292.855469 749.949219 278.378906 C 749.949219 261.558594 736.269531 247.851562 719.441406 247.851562 Z M 40.320312 235.125 C 37.585938 237.117188 34.199219 238.277344 30.558594 238.277344 C 21.328125 238.277344 13.828125 230.753906 13.828125 221.535156 C 13.828125 212.296875 21.328125 204.792969 30.558594 204.792969 C 39.789062 204.792969 47.289062 212.296875 47.289062 221.535156 C 47.289062 222.085938 47.269531 222.640625 47.210938 223.191406 C 46.71875 228.074219 44.121094 232.367188 40.320312 235.125 Z M 316.050781 264.789062 C 318.789062 262.800781 322.171875 261.636719 325.792969 261.636719 C 335.023438 261.636719 342.523438 269.160156 342.523438 278.378906 C 342.523438 285.15625 338.488281 291.003906 332.683594 293.625 C 330.578125 294.589844 328.253906 295.121094 325.792969 295.121094 C 323.332031 295.121094 321.011719 294.589844 318.90625 293.625 C 313.097656 291.003906 309.0625 285.15625 309.0625 278.378906 C 309.0625 277.828125 309.082031 277.277344 309.144531 276.722656 C 309.636719 271.820312 312.234375 267.527344 316.050781 264.789062 Z M 318.90625 388.125 L 227.382812 440.992188 L 135.859375 388.125 L 135.859375 282.359375 L 227.382812 229.492188 L 296.625 269.476562 C 295.757812 272.292969 295.285156 275.285156 295.285156 278.378906 C 295.285156 292.855469 305.382812 304.988281 318.90625 308.101562 Z M 726.328125 293.625 C 724.222656 294.589844 721.902344 295.121094 719.441406 295.121094 C 716.980469 295.121094 714.65625 294.589844 712.550781 293.625 C 706.746094 291.003906 702.710938 285.15625 702.710938 278.378906 C 702.710938 277.828125 702.730469 277.277344 702.789062 276.722656 C 703.28125 271.820312 705.878906 267.527344 709.699219 264.789062 C 712.433594 262.800781 715.820312 261.636719 719.441406 261.636719 C 728.671875 261.636719 736.171875 269.160156 736.171875 278.378906 C 736.171875 285.15625 732.136719 291.003906 726.328125 293.625 Z M 433.949219 576.261719 C 431.210938 578.253906 427.828125 579.414062 424.207031 579.414062 C 414.976562 579.414062 407.476562 571.910156 407.476562 562.671875 C 407.476562 555.898438 411.511719 550.046875 417.316406 547.429688 C 419.421875 546.464844 421.746094 545.929688 424.207031 545.929688 C 426.667969 545.929688 428.988281 546.464844 431.09375 547.429688 C 436.902344 550.046875 440.9375 555.898438 440.9375 562.671875 C 440.9375 563.246094 440.917969 563.796875 440.855469 564.347656 C 440.363281 569.25 437.746094 573.546875 433.949219 576.261719 Z M 614.140625 558.695312 L 522.617188 611.578125 L 453.375 571.574219 C 454.242188 568.757812 454.714844 565.765625 454.714844 562.671875 C 454.714844 548.195312 444.617188 536.0625 431.09375 532.953125 L 431.09375 452.945312 L 522.617188 400.0625 L 614.140625 452.945312 Z M 712.550781 388.125 L 621.007812 440.992188 L 529.507812 388.125 L 529.507812 282.359375 L 621.027344 229.492188 L 690.269531 269.476562 C 689.40625 272.292969 688.933594 275.285156 688.933594 278.378906 C 688.933594 292.855469 699.03125 304.988281 712.550781 308.101562 Z M 712.550781 388.125 " fill-opacity="1" fill-rule="nonzero"/></g><g clip-path="url(#eb5f8193d8)"><path fill="#000000" d="M 617.574219 602.78125 L 624.460938 590.839844 L 693.351562 630.640625 L 686.460938 642.578125 Z M 617.574219 602.78125 " fill-opacity="1" fill-rule="nonzero"/></g><g fill="#000000" fill-opacity="1"><g transform="translate(26.67448, 22.87189)"><g><path d="M 0.421875 0 L 0.40625 -0.078125 L 0.390625 -0.078125 C 0.367188 -0.046875 0.34375 -0.0195312 0.3125 0 C 0.289062 0.0078125 0.257812 0.015625 0.21875 0.015625 C 0.164062 0.015625 0.125 0 0.09375 -0.03125 C 0.0625 -0.0625 0.046875 -0.0976562 0.046875 -0.140625 C 0.046875 -0.253906 0.132812 -0.3125 0.3125 -0.3125 L 0.390625 -0.328125 L 0.390625 -0.359375 C 0.390625 -0.398438 0.378906 -0.429688 0.359375 -0.453125 C 0.347656 -0.472656 0.320312 -0.484375 0.28125 -0.484375 C 0.238281 -0.484375 0.1875 -0.46875 0.125 -0.4375 L 0.109375 -0.5 C 0.128906 -0.507812 0.15625 -0.519531 0.1875 -0.53125 C 0.21875 -0.539062 0.25 -0.546875 0.28125 -0.546875 C 0.351562 -0.546875 0.398438 -0.53125 0.421875 -0.5 C 0.453125 -0.46875 0.46875 -0.421875 0.46875 -0.359375 L 0.46875 0 Z M 0.234375 -0.0625 C 0.285156 -0.0625 0.320312 -0.0703125 0.34375 -0.09375 C 0.375 -0.125 0.390625 -0.164062 0.390625 -0.21875 L 0.390625 -0.265625 L 0.3125 -0.265625 C 0.25 -0.253906 0.203125 -0.238281 0.171875 -0.21875 C 0.140625 -0.207031 0.125 -0.179688 0.125 -0.140625 C 0.125 -0.117188 0.132812 -0.0976562 0.15625 -0.078125 C 0.175781 -0.0664062 0.203125 -0.0625 0.234375 -0.0625 Z M 0.234375 -0.0625 "/></g></g></g></svg>