<svg xmlns="http://www.w3.org/2000/svg" xmlns:xlink="http://www.w3.org/1999/xlink" width="1000" zoomAndPan="magnify" viewBox="0 0 750 749.999995" height="1000" preserveAspectRatio="xMidYMid meet" version="1.0"><defs><g/><clipPath id="7180aca906"><path d="M 336 299 L 717.5625 299 L 717.5625 745 L 336 745 Z M 336 299 " clip-rule="nonzero"/></clipPath></defs><path fill="#12a7f2" d="M 374.261719 643.871094 C 335.46875 587 314.992188 520.363281 314.992188 451.253906 L 314.992188 277.457031 L 345.65625 291.648438 C 369.324219 302.550781 394.632812 308.105469 421.078125 308.105469 C 454.519531 308.105469 487.238281 298.847656 515.535156 281.367188 L 518.828125 279.308594 C 524.179688 276.019531 529.015625 271.90625 533.132812 267.175781 C 447.625 131.839844 321.785156 0 321.785156 0 C 321.785156 0 33.164062 302.242188 33.164062 461.539062 C 33.164062 620.835938 162.402344 750 321.785156 750 C 366.648438 750 409.144531 739.820312 447.007812 721.515625 C 419.019531 699.710938 394.53125 673.589844 374.261719 643.871094 Z M 374.261719 643.871094 " fill-opacity="1" fill-rule="nonzero"/><g clip-path="url(#7180aca906)"><path fill="#12a7f2" d="M 717.210938 451.253906 C 717.210938 516.042969 697.96875 578.464844 661.644531 631.734375 C 627.792969 681.304688 581.386719 720.175781 526.855469 744.445312 C 472.320312 720.175781 425.914062 681.304688 392.0625 631.734375 C 355.742188 578.464844 336.5 516.042969 336.5 451.253906 L 336.5 311.292969 C 362.839844 323.425781 391.445312 329.800781 420.976562 329.800781 C 458.738281 329.800781 494.957031 319.519531 526.855469 299.875 C 558.648438 319.519531 594.96875 329.800781 632.734375 329.800781 C 662.265625 329.800781 690.867188 323.53125 717.210938 311.292969 Z M 717.210938 451.253906 " fill-opacity="1" fill-rule="nonzero"/></g><path fill="#ffffff" d="M 504.527344 594.917969 L 410.171875 500.617188 L 445.054688 465.859375 L 504.527344 525.402344 L 623.988281 406.109375 L 658.765625 440.867188 Z M 504.527344 594.917969 " fill-opacity="1" fill-rule="nonzero"/><g fill="#000000" fill-opacity="1"><g transform="translate(26.67448, 22.87189)"><g><path d="M 0.421875 0 L 0.40625 -0.078125 L 0.390625 -0.078125 C 0.367188 -0.046875 0.34375 -0.0195312 0.3125 0 C 0.289062 0.0078125 0.257812 0.015625 0.21875 0.015625 C 0.164062 0.015625 0.125 0 0.09375 -0.03125 C 0.0625 -0.0625 0.046875 -0.0976562 0.046875 -0.140625 C 0.046875 -0.253906 0.132812 -0.3125 0.3125 -0.3125 L 0.390625 -0.328125 L 0.390625 -0.359375 C 0.390625 -0.398438 0.378906 -0.429688 0.359375 -0.453125 C 0.347656 -0.472656 0.320312 -0.484375 0.28125 -0.484375 C 0.238281 -0.484375 0.1875 -0.46875 0.125 -0.4375 L 0.109375 -0.5 C 0.128906 -0.507812 0.15625 -0.519531 0.1875 -0.53125 C 0.21875 -0.539062 0.25 -0.546875 0.28125 -0.546875 C 0.351562 -0.546875 0.398438 -0.53125 0.421875 -0.5 C 0.453125 -0.46875 0.46875 -0.421875 0.46875 -0.359375 L 0.46875 0 Z M 0.234375 -0.0625 C 0.285156 -0.0625 0.320312 -0.0703125 0.34375 -0.09375 C 0.375 -0.125 0.390625 -0.164062 0.390625 -0.21875 L 0.390625 -0.265625 L 0.3125 -0.265625 C 0.25 -0.253906 0.203125 -0.238281 0.171875 -0.21875 C 0.140625 -0.207031 0.125 -0.179688 0.125 -0.140625 C 0.125 -0.117188 0.132812 -0.0976562 0.15625 -0.078125 C 0.175781 -0.0664062 0.203125 -0.0625 0.234375 -0.0625 Z M 0.234375 -0.0625 "/></g></g></g></svg>