<svg xmlns="http://www.w3.org/2000/svg" xmlns:xlink="http://www.w3.org/1999/xlink" width="1000" zoomAndPan="magnify" viewBox="0 0 750 749.999995" height="1000" preserveAspectRatio="xMidYMid meet" version="1.0"><defs><g/></defs><path fill="#ffdee1" d="M 504.542969 166.535156 C 337.085938 79.492188 0 224.445312 50.328125 531.535156 C 100.472656 838.449219 474.492188 779.453125 609.722656 600.484375 C 761.25 399.976562 654.984375 244.894531 504.542969 166.535156 " fill-opacity="1" fill-rule="nonzero"/><path fill="#8c4848" d="M 423.621094 62.664062 C 423.621094 62.664062 410.222656 51.808594 389.222656 62.664062 C 389.222656 62.664062 394.472656 47.28125 415.472656 44.75 C 407.691406 31.902344 396.648438 20.679688 382.34375 13.082031 C 357.722656 0.0507812 329.664062 0.234375 306.128906 11.089844 C 295.085938 36.425781 307.035156 59.949219 307.035156 59.949219 C 307.035156 59.949219 292.191406 39.320312 297.984375 15.433594 C 285.128906 23.214844 274.265625 34.253906 266.664062 48.367188 C 244.578125 89.988281 260.328125 141.746094 301.964844 164.003906 C 343.601562 186.082031 395.378906 170.335938 417.648438 128.714844 C 429.050781 107.542969 430.320312 83.835938 423.621094 62.664062 Z M 423.621094 62.664062 " fill-opacity="1" fill-rule="nonzero"/><path fill="#6b3737" d="M 362.25 444.855469 C 392.84375 356.910156 462.363281 262.445312 412.214844 197.121094 C 371.121094 143.734375 369.492188 99.21875 291.648438 80.761719 C 169.449219 51.808594 100.835938 138.488281 72.957031 209.785156 C 47.25 275.65625 362.25 444.855469 362.25 444.855469 Z M 362.25 444.855469 " fill-opacity="1" fill-rule="nonzero"/><path fill="#f2996d" d="M 250.734375 428.570312 C 250.734375 428.570312 269.015625 530.632812 250.550781 544.566406 C 234.800781 556.507812 155.148438 567.003906 119.121094 589.265625 C 73.863281 616.589844 53.40625 750.5 53.40625 750.5 L 601.757812 750.5 C 601.757812 750.5 585.464844 619.847656 538.035156 590.167969 C 509.25 572.074219 421.628906 551.082031 410.765625 535.519531 C 385.601562 510.363281 352.65625 357.089844 353.558594 353.46875 L 250.734375 428.570312 " fill-opacity="1" fill-rule="nonzero"/><path fill="#ffaf87" d="M 368.042969 288.503906 C 382.886719 285.609375 382.34375 304.25 379.265625 325.78125 C 376.191406 346.414062 371.484375 366.863281 356.457031 369.757812 C 341.613281 372.652344 340.34375 355.28125 335.277344 334.46875 C 330.386719 313.660156 353.199219 291.398438 368.042969 288.503906 Z M 368.042969 288.503906 " fill-opacity="1" fill-rule="nonzero"/><path fill="#ffaf87" d="M 335.457031 223.175781 C 322.964844 196.9375 300.335938 175.042969 278.972656 169.070312 C 264.492188 165.089844 223.398438 138.847656 191.351562 143.011719 C 191.351562 143.011719 109.886719 187.890625 97.035156 195.851562 C 78.027344 207.433594 79.835938 227.339844 75.128906 255.933594 C 72.59375 271.496094 84.179688 327.050781 86.898438 346.59375 C 86.898438 346.59375 119.300781 437.074219 140.121094 460.78125 C 167.636719 492.085938 196.242188 524.660156 228.464844 520.859375 L 229.550781 520.679688 C 261.59375 515.429688 316.992188 471.09375 334.734375 433.457031 C 348.128906 404.863281 348.308594 309.132812 348.308594 309.132812 C 345.414062 289.589844 342.15625 237.292969 335.457031 223.175781 " fill-opacity="1" fill-rule="nonzero"/><path fill="#6b3737" d="M 185.015625 276.378906 C 179.765625 280.179688 183.207031 293.210938 187.914062 290.316406 C 192.621094 287.417969 229.734375 275.113281 246.207031 271.675781 C 262.5 268.417969 273 269.867188 273 269.867188 C 273 269.867188 263.765625 256.292969 243.671875 259.1875 C 222.308594 262.445312 190.449219 272.761719 185.015625 276.378906 Z M 185.015625 276.378906 " fill-opacity="1" fill-rule="nonzero"/><path fill="#6b3737" d="M 135.957031 287.238281 C 140.84375 288.6875 142.292969 302.257812 138.128906 301.351562 C 133.964844 300.449219 104.457031 302.621094 92.148438 305.695312 C 79.835938 308.773438 72.957031 314.019531 72.957031 314.019531 C 72.957031 314.019531 75.308594 297.914062 90.15625 293.027344 C 105.90625 287.960938 131.070312 285.789062 135.957031 287.238281 Z M 135.957031 287.238281 " fill-opacity="1" fill-rule="nonzero"/><path fill="#2e2b2d" d="M 272.09375 319.449219 C 272.09375 319.449219 265.398438 314.5625 262.136719 316.734375 C 258.878906 318.90625 249.648438 324.699219 237.335938 331.574219 C 216.335938 343.335938 201.492188 334.105469 201.492188 334.105469 C 201.492188 334.105469 211.628906 349.308594 240.050781 336.820312 C 255.257812 330.308594 272.09375 319.449219 272.09375 319.449219 Z M 272.09375 319.449219 " fill-opacity="1" fill-rule="nonzero"/><path fill="#2e2b2d" d="M 86.171875 361.433594 C 86.171875 361.433594 89.613281 354.554688 92.871094 355.28125 C 96.128906 356.183594 105.179688 358.175781 117.308594 360.347656 C 137.765625 363.785156 145.914062 350.03125 145.914062 350.03125 C 145.914062 350.03125 143.378906 367.765625 117.128906 366.320312 C 103.007812 365.59375 86.171875 361.433594 86.171875 361.433594 Z M 86.171875 361.433594 " fill-opacity="1" fill-rule="nonzero"/><path fill="#f55f6e" d="M 190.265625 439.609375 C 185.558594 437.074219 162.386719 445.578125 162.386719 445.578125 C 162.386719 445.578125 181.941406 474.894531 205.292969 469.828125 C 228.464844 464.761719 242.40625 428.386719 242.40625 428.386719 C 242.40625 428.386719 193.707031 435.445312 190.265625 439.609375 Z M 190.265625 439.609375 " fill-opacity="1" fill-rule="nonzero"/><path fill="#ff6e7c" d="M 242.042969 428.929688 C 242.042969 428.929688 241.863281 428.75 241.679688 428.570312 C 238.601562 429.113281 212.898438 433.273438 207.464844 433.636719 C 202.578125 434 193.707031 435.265625 190.085938 439.609375 C 179.40625 434.359375 162.207031 445.578125 162.207031 445.578125 C 171.078125 447.933594 189.722656 454.988281 196.964844 451.734375 C 206.015625 447.570312 237.15625 433.457031 242.042969 428.929688 Z M 242.042969 428.929688 " fill-opacity="1" fill-rule="nonzero"/><path fill="#6b3737" d="M 327.308594 180.109375 C 295.808594 140.476562 203.484375 119.847656 162.386719 147.714844 C 111.878906 155.316406 76.398438 185.355469 65.535156 231.320312 C 59.742188 255.75 58.472656 269.140625 65.535156 295.742188 C 72.414062 321.800781 89.070312 353.46875 89.070312 353.46875 C 89.070312 353.46875 76.578125 308.230469 78.929688 291.761719 C 89.613281 221.1875 124.914062 195.851562 135.777344 193.679688 C 146.820312 191.507812 167.09375 226.253906 311.558594 258.285156 C 331.113281 262.628906 330.207031 297.734375 334.914062 310.039062 C 336.363281 313.839844 341.613281 314.203125 343.601562 310.582031 C 351.929688 295.199219 364.058594 272.398438 361.707031 252.3125 C 358.808594 226.796875 342.335938 199.109375 327.308594 180.109375 Z M 327.308594 180.109375 " fill-opacity="1" fill-rule="nonzero"/><path fill="#ff9367" d="M 167.277344 348.222656 C 168.179688 356.367188 168.90625 405.949219 170.898438 411.558594 C 171.984375 414.453125 176.328125 415.359375 181.214844 415.359375 C 186.285156 415.359375 192.078125 414.273438 194.792969 412.824219 C 198.414062 411.015625 208.914062 401.425781 208.914062 401.425781 C 208.914062 401.425781 188.636719 408.121094 179.949219 408.121094 C 178.679688 408.121094 177.59375 407.941406 176.871094 407.578125 C 172.707031 405.585938 173.792969 361.976562 167.277344 348.222656 " fill-opacity="1" fill-rule="nonzero"/><path fill="#ffdee1" d="M 482.820312 637.039062 L 482.636719 637.039062 C 479.558594 636.3125 478.113281 620.75 477.207031 617.855469 C 476.300781 615.140625 475.578125 612.425781 473.765625 610.980469 C 467.070312 604.644531 458.015625 604.644531 449.507812 603.378906 C 426.878906 599.757812 406.242188 584.738281 396.828125 563.566406 C 393.570312 543.84375 363.699219 536.785156 371.484375 514.707031 C 379.085938 493.714844 358.628906 479.78125 353.015625 460.960938 C 351.386719 456.074219 344.328125 456.074219 348.308594 491.363281 C 350.84375 513.984375 332.015625 499.324219 337.449219 521.402344 C 339.257812 528.097656 345.050781 545.832031 348.308594 552.167969 C 366.414062 582.75 384.699219 609.351562 410.042969 634.683594 C 425.429688 647.894531 446.070312 654.046875 465.800781 648.4375 C 474.128906 645.363281 490.421875 651.695312 482.820312 637.039062 " fill-opacity="1" fill-rule="nonzero"/><path fill="#ffaf87" d="M 432.671875 536.421875 C 432.492188 534.25 428.691406 526.109375 425.792969 517.785156 C 423.441406 510.726562 419.457031 504.03125 414.570312 508.191406 C 413.300781 509.277344 412.214844 510.726562 411.492188 512.535156 C 410.949219 503.125 409.863281 494.078125 408.414062 486.660156 C 405.515625 473.265625 403.164062 466.933594 398.820312 467.839844 C 395.558594 468.5625 392.484375 471.636719 391.035156 476.886719 C 391.035156 475.257812 391.035156 473.628906 391.035156 472.179688 C 391.035156 461.6875 391.035156 455.351562 386.328125 452.820312 C 384.878906 452.09375 376.191406 452.277344 374.558594 462.769531 C 373.835938 466.753906 373.292969 470.914062 372.75 475.257812 C 369.308594 468.199219 366.777344 467.113281 362.972656 468.019531 C 353.742188 470.371094 358.085938 498.601562 358.085938 498.601562 C 358.085938 498.601562 354.648438 534.433594 353.015625 538.050781 C 350.484375 543.660156 339.984375 558.679688 324.59375 572.796875 C 321.699219 575.511719 318.441406 572.976562 317.535156 569.175781 C 315.363281 560.128906 317.535156 549.632812 318.078125 543.660156 C 319.164062 531.898438 327.308594 523.574219 329.664062 517.964844 C 334.007812 506.925781 334.371094 495.34375 326.585938 491.183594 C 320.792969 488.105469 307.398438 507.105469 300.515625 522.128906 C 298.886719 525.566406 273.363281 569.902344 268.65625 590.710938 C 264.308594 609.53125 272.277344 618.941406 263.40625 650.789062 C 258.15625 670.152344 174.15625 750.140625 174.15625 750.140625 L 276.621094 750.140625 C 276.621094 750.140625 310.292969 714.488281 327.851562 690.964844 C 338.351562 677.03125 349.941406 674.316406 364.421875 661.46875 C 378.90625 648.621094 413.84375 605.914062 416.558594 601.207031 C 419.457031 596.140625 433.035156 540.402344 432.671875 536.421875 " fill-opacity="1" fill-rule="nonzero"/><path fill="#ff9e74" d="M 414.570312 508.191406 C 413.300781 509.277344 412.214844 510.726562 411.492188 512.535156 L 417.828125 538.414062 L 412.035156 566.460938 L 398.820312 598.492188 L 414.027344 567.910156 L 421.265625 537.691406 C 421.085938 537.507812 416.558594 515.972656 414.570312 508.191406 " fill-opacity="1" fill-rule="nonzero"/><path fill="#ff9e74" d="M 395.558594 469.46875 C 393.75 470.914062 392.121094 473.265625 391.035156 476.707031 L 397.914062 521.222656 L 393.027344 562.121094 L 378 594.511719 L 396.644531 563.207031 L 401.535156 521.222656 C 401.535156 521.402344 394.835938 476.164062 395.558594 469.46875 " fill-opacity="1" fill-rule="nonzero"/><path fill="#ff9e74" d="M 377.277344 456.074219 C 376.007812 457.523438 374.921875 459.695312 374.378906 462.769531 C 373.65625 466.753906 373.113281 470.914062 372.570312 475.257812 L 380.171875 521.222656 L 371.300781 560.851562 L 351.027344 588.902344 L 373.65625 561.9375 L 383.972656 521.222656 C 383.792969 521.402344 378.722656 471.457031 377.277344 456.074219 " fill-opacity="1" fill-rule="nonzero"/><g fill="#000000" fill-opacity="1"><g transform="translate(26.67448, 22.87189)"><g><path d="M 0.421875 0 L 0.40625 -0.078125 L 0.390625 -0.078125 C 0.367188 -0.046875 0.34375 -0.0195312 0.3125 0 C 0.289062 0.0078125 0.257812 0.015625 0.21875 0.015625 C 0.164062 0.015625 0.125 0 0.09375 -0.03125 C 0.0625 -0.0625 0.046875 -0.0976562 0.046875 -0.140625 C 0.046875 -0.253906 0.132812 -0.3125 0.3125 -0.3125 L 0.390625 -0.328125 L 0.390625 -0.359375 C 0.390625 -0.398438 0.378906 -0.429688 0.359375 -0.453125 C 0.347656 -0.472656 0.320312 -0.484375 0.28125 -0.484375 C 0.238281 -0.484375 0.1875 -0.46875 0.125 -0.4375 L 0.109375 -0.5 C 0.128906 -0.507812 0.15625 -0.519531 0.1875 -0.53125 C 0.21875 -0.539062 0.25 -0.546875 0.28125 -0.546875 C 0.351562 -0.546875 0.398438 -0.53125 0.421875 -0.5 C 0.453125 -0.46875 0.46875 -0.421875 0.46875 -0.359375 L 0.46875 0 Z M 0.234375 -0.0625 C 0.285156 -0.0625 0.320312 -0.0703125 0.34375 -0.09375 C 0.375 -0.125 0.390625 -0.164062 0.390625 -0.21875 L 0.390625 -0.265625 L 0.3125 -0.265625 C 0.25 -0.253906 0.203125 -0.238281 0.171875 -0.21875 C 0.140625 -0.207031 0.125 -0.179688 0.125 -0.140625 C 0.125 -0.117188 0.132812 -0.0976562 0.15625 -0.078125 C 0.175781 -0.0664062 0.203125 -0.0625 0.234375 -0.0625 Z M 0.234375 -0.0625 "/></g></g></g></svg>